<svg xmlns="http://www.w3.org/2000/svg" viewBox="0 0 378.47 433.6"><defs><style>.cls-1{fill:#fff;}.cls-2,.cls-3{fill:#01427a;}.cls-3{font-size:113px;font-family:Algerian;}</style></defs><title>Fichier 9</title><g id="Calque_2" data-name="Calque 2"><g id="Calque_1-2" data-name="Calque 1"><path class="cls-1" d="M351.68,32V316.79c-18.23,24.09-42.48,45.42-65.7,63.41A310,310,0,0,1,259,399H120.33c-36-22.49-69.06-51.81-93.65-84.61V32Z"/><path class="cls-2" d="M101.85,150.63a.41.41,0,0,1,.05-.54c-.23-.05-.49-.1-.72-.13v.6A1,1,0,0,1,101.85,150.63Zm37.73.6a.48.48,0,0,0,.39,0,3.26,3.26,0,0,0-.54,0Zm2.52-.08h-.52v0a.11.11,0,0,1,0,.08.68.68,0,0,1-.07.59,3.81,3.81,0,0,0,.59.05C142.12,151.64,142.1,151.41,142.1,151.15Zm-7.59.18c1.43.11,2.85.18,4.27.31v0a.6.6,0,0,1,.62-.39C137.75,151.26,136.14,151.31,134.51,151.33Zm-51.45-1.39c.36-.11.75-.21,1.14-.31l-4.46.15c.83,0,1.66.08,2.49.1l.15,0a.42.42,0,0,1,.42.11Zm16.2,4.58A5.51,5.51,0,0,1,94.21,156a4.12,4.12,0,0,0,1.87.28A4.18,4.18,0,0,0,99.26,154.52Zm-4.53-6.84a14.7,14.7,0,0,1,.83,2.15c1.29-5.51,7.56-8.64,13.41-8.85,11-.41,22.54,3.86,33,7.25-3.05-13.95-5.67-28-8.25-42.06-6.16-.1-11.52,1-16.83-2.87-3.34-2.41-5.9-4.69-10.27-4.82a14.28,14.28,0,0,0-10.2,4s0,0,0,0a1.15,1.15,0,0,1-.41.68C95.64,118,95.58,132.88,94.73,147.68Zm1.66,10.41a6.65,6.65,0,0,1-7-6.13c-13,.28-26,.25-39,1.08-.59,0-1.24-.7-1-1.29a3.81,3.81,0,0,1,.36-.73.8.8,0,0,1-.08-.33.28.28,0,0,0,0-.13,1,1,0,0,1,0-.39c2.23-8.33,4.3-16.69,6-25.16.75-3.67.73-8.57,2.23-12,.9-2,2.17-2.23,4.17-2.85,10.19-3.1,21.79-16.54,33-9.34a.64.64,0,0,1,1,.46,14.72,14.72,0,0,1,15.48-3.65c3.29,1.19,5.49,3.94,8.54,5.54,4.43,2.36,9.68.6,14.42,1.3a.66.66,0,0,1,.6.64.86.86,0,0,1,.28.44c2.92,14.37,5.82,28.81,8.26,43.3a.93.93,0,0,1,.26.7,1.41,1.41,0,0,1,.2.55c0,.59,0,1.19,0,1.78a.77.77,0,0,1-.23.62.83.83,0,0,1-.76,1.22c-13.43.23-27.09-.88-40.53-1.68l-.28-.08A6.67,6.67,0,0,1,96.39,158.09ZM84,141a11.42,11.42,0,0,1,9.6,4.74c0-14.29.67-28.6,1.06-42.89-5.43-3.7-12.11-1.76-17.42,1.25-4.71,2.66-9.24,5.28-14.05,7.68-2.36,1.17-3.42,2.13-4.17,4.74-.44,1.55-.57,3.34-.88,4.92-.59,3.29-1.27,6.55-2,9.81q-2,8.85-4.68,17.55c6.16-1.82,12.37-3.39,18.58-5C74.54,142.53,79.25,140.93,84,141Zm12.63,13a4.41,4.41,0,0,0,2.51-4.17.91.91,0,0,1,1.32-.91.56.56,0,0,1,.47-.26c7-.38,14.1.55,21.06.7,5.65.11,11.29.08,16.93,0a176,176,0,0,0-20.08-5.39C111,142.38,95.3,141.65,96.62,153.9Zm-5.85-5.36c.16-.31.65-.21.54.15a6.3,6.3,0,0,0,.47,2.57A4.41,4.41,0,0,0,94,153.84a2.21,2.21,0,0,0,.55.21,20.3,20.3,0,0,0-.34-2.82.46.46,0,0,1-.57-.44v-1.6a9.25,9.25,0,0,0-5.56-5.8c-3.78-1.43-8-.47-11.78.46-6.73,1.66-13.43,3.5-20.16,5.13,11.23-.49,22.49-.88,33.72-1.3a.86.86,0,0,1,.6,1.48l0,0A4.34,4.34,0,0,0,90.77,148.54Z"/><path class="cls-2" d="M376.31,45.16a2.67,2.67,0,0,0-.28-1,2.53,2.53,0,0,0-1.35-2.38C318.46,12.24,250.81,0,187.81,0,125.67,0,56,11.34,1.23,42.27c-1.66.93-1.27,3.33.05,4.19a3,3,0,0,0-.57,1.68Q-.65,116.9.63,185.65c.41,22.08,1,44.16,1.89,66.21.75,18.56,3.13,35.25,13.41,51.14q5.06,7.81,10.75,15.39c24.59,32.8,57.65,62.12,93.65,84.61a340.05,340.05,0,0,0,61.32,30.45,2.39,2.39,0,0,0,2.85-1.06C211,428,236.08,417.16,259,403a310,310,0,0,0,27-18.8c23.22-18,47.47-39.32,65.7-63.41q5.28-7,9.83-14.24c9.44-15.17,13.09-31.45,14.15-49.13,1.43-23.31,1.63-46.79,2-70.14C378.43,140.1,379.49,92.27,376.31,45.16ZM100.12,193.91c-22.85.83-45.84,1.11-68.66,2.82,2-44.59,3.23-89.32,4.14-133.94a2.82,2.82,0,0,0-.21-1.09,2.68,2.68,0,0,0,2.67-1.08c6.54-8.83,22.31-10,32.3-12.12q15.84-3.3,31.88-5.59c22.86-3.26,45.82-2.87,68.64-5.43a2.81,2.81,0,0,0,1.87-.91l1.45,0a2.91,2.91,0,0,0-.88,1.78c-3.11,25.11-.88,51.82-1.27,77.18s-1.48,50.84-1.17,76.23c0,0-.07,0-.13,0C147.33,191,123.54,193.08,100.12,193.91Zm235.37,88.62c-2,10.38-4.76,20.42-11.8,28.65-5.95,7-13.69,12.74-20.73,18.56q-24.34,20-50.24,38.07a221.32,221.32,0,0,1-21.84,13.77c-8,4.3-17.47,6.32-24.95,11.42a1.2,1.2,0,0,0-.6,1l-1.19-.08c2.36-27.95-1.89-57.77-3.16-85.83-1.26-27.67-1.37-55.72-4.4-83.26,24.33,3.08,49.67,2.12,74.13,1.37,11.75-.39,23.53-1,35.25-1.84,6.71-.49,13.41-1,20.11-1.68q5-.47,10-1a1.44,1.44,0,0,0,1.22-.46,2.87,2.87,0,0,0,2.61.88C340.26,242.36,339.35,262.52,335.49,282.53Z"/><text class="cls-3" transform="translate(228.47 329.03)">S</text></g></g></svg>