<svg xmlns="http://www.w3.org/2000/svg" viewBox="0 0 500 500"><g id="freepik--background-complete--inject-84"><g><path d="M59.61,365.85c-.45-.75-1.44-1.67-2.14-2.2-.7-.53-1.65-.79-2.46-.46-1.03,.42-1.51,1.69-1.36,2.79,.14,1.11,.67,2.5,1.3,3.42,2.68,3.93,5.17,7.52,9.31,10.45,0-4.88-2.17-9.85-4.64-14.01Z" style="fill:#e6e6e6;"></path><path d="M73.27,366.53c-.93-.51-2.65,.21-3.49,.85-1.68,1.26-2.7,2.57-3.72,4.4-1.3,2.32-1.45,5.58-1.61,7.65,3.28-2.66,6.62-5.39,8.86-8.97,.39-.62,.76-1.29,.83-2.03,.07-.73-.22-1.55-.86-1.9Z" style="fill:#e6e6e6;"></path><path d="M64.74,381.99c-.12,0-.22-.08-.24-.2-.78-3.58-2.15-6.98-4.08-10.1-.07-.12-.04-.27,.08-.34,.12-.07,.27-.04,.34,.08,1.96,3.17,3.36,6.62,4.15,10.25,.03,.13-.06,.27-.19,.3-.02,0-.04,0-.05,0Z" style="fill:#e0e0e0;"></path><path d="M64.31,379.99s-.06,0-.09-.01c-.13-.05-.2-.19-.15-.32,.88-2.43,2.17-4.67,3.83-6.66,.09-.11,.25-.12,.35-.03,.11,.09,.12,.25,.03,.35-1.62,1.94-2.88,4.13-3.74,6.51-.04,.1-.13,.17-.23,.17Z" style="fill:#e0e0e0;"></path></g><g><path d="M445.51,350.21c-.45-.75-1.44-1.67-2.14-2.2-.7-.53-1.65-.79-2.46-.46-1.03,.42-1.51,1.69-1.36,2.79,.14,1.11,.67,2.5,1.3,3.42,2.68,3.93,5.17,7.52,9.31,10.45,0-4.88-2.17-9.85-4.64-14.01Z" style="fill:#e6e6e6;"></path><path d="M459.17,350.89c-.93-.51-2.65,.21-3.49,.85-1.68,1.26-2.7,2.57-3.72,4.4-1.3,2.32-1.45,5.58-1.61,7.65,3.28-2.66,6.62-5.39,8.86-8.97,.39-.62,.76-1.29,.83-2.03,.07-.73-.22-1.55-.86-1.9Z" style="fill:#e6e6e6;"></path><path d="M450.64,366.35c-.12,0-.22-.08-.24-.2-.78-3.58-2.15-6.98-4.08-10.1-.07-.12-.04-.27,.08-.34,.12-.07,.27-.04,.34,.08,1.96,3.17,3.36,6.62,4.15,10.25,.03,.13-.06,.27-.19,.3-.02,0-.04,0-.05,0Z" style="fill:#e0e0e0;"></path><path d="M450.21,364.35s-.06,0-.08-.01c-.13-.05-.2-.19-.15-.32,.88-2.43,2.17-4.67,3.83-6.66,.09-.11,.25-.12,.35-.03,.11,.09,.12,.25,.03,.35-1.62,1.94-2.88,4.13-3.74,6.51-.04,.1-.13,.17-.24,.17Z" style="fill:#e0e0e0;"></path></g><g><path d="M427.25,247.98c-.21-.34-.66-.77-.98-1.01-.32-.24-.76-.36-1.13-.21-.47,.19-.69,.78-.63,1.28,.07,.51,.31,1.15,.6,1.57,1.23,1.8,2.37,3.46,4.28,4.8,0-2.24-.99-4.52-2.13-6.43Z" style="fill:#e6e6e6;"></path><path d="M433.52,248.29c-.43-.23-1.22,.1-1.61,.39-.77,.58-1.24,1.18-1.71,2.02-.6,1.07-.66,2.56-.74,3.51,1.51-1.22,3.04-2.48,4.07-4.12,.18-.29,.35-.59,.38-.93,.03-.34-.1-.71-.4-.87Z" style="fill:#e6e6e6;"></path><path d="M429.61,255.53c-.12,0-.22-.08-.24-.2-.35-1.63-.98-3.18-1.86-4.6-.07-.12-.04-.27,.08-.34,.12-.07,.27-.04,.34,.08,.91,1.47,1.56,3.07,1.92,4.75,.03,.13-.06,.27-.19,.3-.02,0-.04,0-.05,0Z" style="fill:#e0e0e0;"></path><path d="M429.41,254.61s-.06,0-.08-.01c-.13-.05-.2-.19-.15-.32,.41-1.13,1.01-2.17,1.78-3.1,.09-.11,.25-.12,.35-.03,.11,.09,.12,.25,.03,.35-.73,.88-1.3,1.87-1.69,2.95-.04,.1-.13,.17-.24,.17Z" style="fill:#e0e0e0;"></path></g><g><path d="M198.1,300.57c-.34-.58-1.11-1.29-1.64-1.69-.54-.4-1.27-.61-1.89-.35-.79,.32-1.16,1.3-1.05,2.15,.11,.85,.52,1.92,1,2.63,2.06,3.02,3.97,5.78,7.15,8.03,0-3.75-1.66-7.57-3.57-10.77Z" style="fill:#e6e6e6;"></path><path d="M208.6,301.09c-.71-.39-2.04,.16-2.69,.65-1.29,.97-2.07,1.98-2.86,3.38-1,1.78-1.11,4.29-1.24,5.88,2.52-2.05,5.09-4.14,6.81-6.89,.3-.48,.58-1,.63-1.56,.05-.56-.17-1.19-.66-1.46Z" style="fill:#e6e6e6;"></path><path d="M202.04,313.03c-.12,0-.22-.08-.24-.2-.6-2.75-1.65-5.35-3.13-7.74-.07-.12-.04-.27,.08-.34,.12-.07,.27-.04,.34,.08,1.51,2.44,2.59,5.1,3.19,7.9,.03,.13-.06,.27-.19,.3-.02,0-.04,0-.05,0Z" style="fill:#e0e0e0;"></path><path d="M201.71,311.49s-.06,0-.09-.01c-.13-.05-.2-.19-.15-.32,.68-1.88,1.67-3.6,2.95-5.14,.09-.11,.25-.12,.35-.03,.11,.09,.12,.25,.03,.35-1.24,1.49-2.2,3.17-2.86,4.99-.04,.1-.13,.17-.23,.17Z" style="fill:#e0e0e0;"></path></g><g><g><g><path d="M443.92,330.2h-180.75c-3.23,0-5.86-2.63-5.86-5.86V61.06c0-3.23,2.63-5.86,5.86-5.86h180.75c3.23,0,5.86,2.63,5.86,5.86V324.34c0,3.23-2.63,5.86-5.86,5.86ZM263.17,55.45c-3.09,0-5.61,2.52-5.61,5.61V324.34c0,3.09,2.52,5.61,5.61,5.61h180.75c3.09,0,5.61-2.52,5.61-5.61V61.06c0-3.09-2.52-5.61-5.61-5.61h-180.75Z" style="fill:#e0e0e0;"></path><path d="M235.49,330.2H54.75c-3.23,0-5.86-2.63-5.86-5.86V61.06c0-3.23,2.63-5.86,5.86-5.86H235.49c3.23,0,5.86,2.63,5.86,5.86V324.34c0,3.23-2.63,5.86-5.86,5.86ZM54.75,55.45c-3.09,0-5.61,2.52-5.61,5.61V324.34c0,3.09,2.52,5.61,5.61,5.61H235.49c3.09,0,5.61-2.52,5.61-5.61V61.06c0-3.09-2.52-5.61-5.61-5.61H54.75Z" style="fill:#e0e0e0;"></path></g><rect x="0" y="391.27" width="500" height=".25" style="fill:#e0e0e0;"></rect></g><rect x="51.67" y="405.53" width="16.06" height=".25" style="fill:#e0e0e0;"></rect><rect x="170.35" y="402.82" width="53.53" height=".25" style="fill:#e0e0e0;"></rect><rect x="68.73" y="414.82" width="36.25" height=".25" style="fill:#e0e0e0;"></rect><rect x="378.35" y="402.69" width="43.19" height=".25" style="fill:#e0e0e0;"></rect><rect x="430.45" y="402.69" width="6.33" height=".25" style="fill:#e0e0e0;"></rect><rect x="316.21" y="408.92" width="53.89" height=".25" style="fill:#e0e0e0;"></rect></g><path d="M101.65,98.71c-1.86-1.41-4.58-1.57-6.59-.39-2.67-5.4-10.12-7.79-15.43-4.94-1.39-5.82-7.12-10.29-13.1-10.22-5.98,.07-11.61,4.68-12.85,10.53-.2,.93-.33,1.95-.99,2.63-1.08,1.1-2.88,.73-4.42,.61-4.85-.38-9.72,3.02-11.04,7.7l66.72-.24c.58-2.26-.42-4.28-2.28-5.69Z" style="fill:#f0f0f0;"></path><path d="M306.09,84.51c-2.95-2.23-7.25-2.48-10.44-.61-4.23-8.56-16.03-12.33-24.45-7.82-2.2-9.22-11.28-16.31-20.76-16.19-9.48,.11-18.39,7.42-20.36,16.69-.31,1.47-.52,3.09-1.57,4.16-1.71,1.75-4.57,1.16-7.01,.97-7.68-.6-15.4,4.79-17.49,12.2l105.7-.38c.93-3.58-.67-6.78-3.62-9.01Z" style="fill:#f0f0f0;"></path><path d="M461.08,101.95c-1.86-1.41-4.58-1.57-6.59-.39-2.67-5.4-10.12-7.79-15.43-4.94-1.39-5.82-7.12-10.29-13.1-10.22-5.98,.07-11.61,4.68-12.85,10.53-.2,.93-.33,1.95-.99,2.63-1.08,1.1-2.88,.73-4.42,.61-4.85-.38-9.72,3.02-11.04,7.7l66.72-.24c.58-2.26-.42-4.28-2.28-5.69Z" style="fill:#f0f0f0;"></path><path d="M171.35,51.01c-1.3-.98-3.2-1.1-4.61-.27-1.87-3.78-7.08-5.44-10.79-3.45-.97-4.07-4.98-7.2-9.16-7.15-4.18,.05-8.12,3.27-8.99,7.37-.14,.65-.23,1.36-.7,1.84-.76,.77-2.02,.51-3.09,.43-3.39-.26-6.8,2.11-7.72,5.39l46.67-.17c.41-1.58-.29-2.99-1.6-3.98Z" style="fill:#f0f0f0;"></path><path d="M393.65,54.37c-1.3-.98-3.2-1.1-4.61-.27-1.87-3.78-7.08-5.44-10.79-3.45-.97-4.07-4.98-7.2-9.16-7.15-4.18,.05-8.12,3.27-8.99,7.37-.14,.65-.23,1.36-.7,1.84-.76,.77-2.02,.51-3.09,.43-3.39-.26-6.8,2.11-7.72,5.39l46.67-.17c.41-1.58-.29-2.99-1.6-3.98Z" style="fill:#f0f0f0;"></path><path d="M425.42,281.32c-15.15-18.17-36.97-28.71-58.96-35.8-21.99-7.09-44.81-11.25-66.44-19.45-13.25-5.02-28.02-14.79-27.58-29.57l-80.25-3.32c4.96,25.67,28.67,42.62,52.26,51.13s49.07,11.54,71.21,23.6c17.39,9.47,33.35,28.62,28.68,48.6-3.87,16.53-19.97,26.19-35.01,32.52-37.85,15.93-78.44,23-118.13,32.84-39.69,9.83-79.69,23.01-112.05,49.06-5.94,4.78-11.75,10.19-14.88,17.33-3.13,7.14-2.94,16.39,2.25,22.06l343.83,2.43c-14.1-5.96-28.52-12.12-39.8-22.81-11.28-10.69-18.98-27.02-15.69-42.6,4.15-19.68,23.22-31.15,40.59-39.72s36.73-18.66,42.78-37.79c5.27-16.67-1.78-35.28-12.8-48.49Z" style="fill:#f0f0f0;"></path></g><g id="freepik--Shadow--inject-84"><path d="M458.88,472.74c0,3.39-93.52,6.13-208.88,6.13s-208.88-2.75-208.88-6.13,93.52-6.13,208.88-6.13,208.88,2.75,208.88,6.13Z" style="fill:#f5f5f5;"></path></g><g id="freepik--College--inject-84"><g><g><rect x="370.46" y="146.77" width="65.9" height="62.19" transform="translate(806.82 355.72) rotate(180)" style="fill:#263238;"></rect><rect x="370.46" y="146.77" width="65.9" height="62.19" transform="translate(806.82 355.72) rotate(180)" style="fill:#fff; opacity:.5;"></rect><polygon points="371.41 146.77 437.66 146.77 434.45 140.97 371.41 140.97 371.41 146.77" style="fill:#263238;"></polygon><rect x="371.41" y="184.72" width="64.95" height=".77" rx=".37" ry=".37" transform="translate(807.78 370.21) rotate(180)" style="fill:#fff;"></rect><rect x="370.39" y="185.11" width="65.9" height="23.85" transform="translate(806.68 394.06) rotate(180)" style="fill:#fff; opacity:.3;"></rect><g><g><rect x="422" y="152.53" width="5.18" height="10.44" transform="translate(849.17 315.49) rotate(180)" style="fill:#01B3EF;"></rect><path d="M422,154.24l5.18,4.36s0,2.61,0,2.59-5.18-4.08-5.18-4.06,0-2.89,0-2.89Z" style="fill:#fff; opacity:.2;"></path></g><g><rect x="411.61" y="152.53" width="5.18" height="10.44" transform="translate(828.4 315.49) rotate(180)" style="fill:#01B3EF;"></rect><rect x="411.61" y="152.53" width="5.18" height="10.44" transform="translate(828.4 315.49) rotate(180)" style="fill:#fff; opacity:.4;"></rect><path d="M411.61,154.24l5.18,4.36s0,2.61,0,2.59-5.18-4.08-5.18-4.06,0-2.89,0-2.89Z" style="fill:#fff; opacity:.2;"></path></g><g><rect x="401.23" y="152.53" width="5.18" height="10.44" transform="translate(807.63 315.49) rotate(180)" style="fill:#01B3EF;"></rect><rect x="401.23" y="152.53" width="5.18" height="10.44" transform="translate(807.63 315.49) rotate(180)" style="fill:#fff; opacity:.4;"></rect><path d="M401.23,154.24l5.18,4.36s0,2.61,0,2.59-5.18-4.08-5.18-4.06,0-2.89,0-2.89Z" style="fill:#fff; opacity:.2;"></path></g><g><rect x="390.84" y="152.53" width="5.18" height="10.44" transform="translate(786.87 315.49) rotate(180)" style="fill:#01B3EF;"></rect><rect x="390.84" y="152.53" width="5.18" height="10.44" transform="translate(786.87 315.49) rotate(180)" style="fill:#fff; opacity:.4;"></rect><path d="M390.84,154.24l5.18,4.36s0,2.61,0,2.59-5.18-4.08-5.18-4.06,0-2.89,0-2.89Z" style="fill:#fff; opacity:.2;"></path></g><rect x="421.09" y="162.95" width="6.68" height=".77" transform="translate(848.87 326.66) rotate(180)" style="fill:#fff;"></rect><rect x="410.8" y="162.95" width="6.68" height=".77" transform="translate(828.28 326.66) rotate(180)" style="fill:#fff;"></rect><rect x="400.5" y="162.95" width="6.68" height=".77" transform="translate(807.69 326.66) rotate(180)" style="fill:#fff;"></rect><rect x="390.21" y="162.95" width="6.68" height=".77" transform="translate(787.1 326.66) rotate(180)" style="fill:#fff;"></rect><g><rect x="380.64" y="152.53" width="5.18" height="10.44" transform="translate(766.45 315.49) rotate(180)" style="fill:#01B3EF;"></rect><rect x="380.64" y="152.53" width="5.18" height="10.44" transform="translate(766.45 315.49) rotate(180)" style="fill:#fff; opacity:.4;"></rect><path d="M380.64,154.24l5.18,4.36s0,2.61,0,2.59-5.18-4.08-5.18-4.06,0-2.89,0-2.89Z" style="fill:#fff; opacity:.2;"></path></g><rect x="380" y="162.95" width="6.68" height=".77" transform="translate(766.68 326.66) rotate(180)" style="fill:#fff;"></rect><rect x="422" y="152.53" width="5.18" height="10.44" transform="translate(849.17 315.49) rotate(180)" style="fill:#fff; opacity:.4;"></rect></g><g><g><rect x="422" y="169.69" width="5.18" height="10.44" transform="translate(849.17 349.82) rotate(180)" style="fill:#01B3EF;"></rect><path d="M422,171.41l5.18,4.36s0,2.61,0,2.59-5.18-4.08-5.18-4.05,0-2.89,0-2.89Z" style="fill:#fff; opacity:.2;"></path></g><g><rect x="411.61" y="169.69" width="5.18" height="10.44" transform="translate(828.4 349.82) rotate(180)" style="fill:#01B3EF;"></rect><rect x="411.61" y="169.69" width="5.18" height="10.44" transform="translate(828.4 349.82) rotate(180)" style="fill:#fff; opacity:.4;"></rect><path d="M411.61,171.41l5.18,4.36s0,2.61,0,2.59-5.18-4.08-5.18-4.05,0-2.89,0-2.89Z" style="fill:#fff; opacity:.2;"></path></g><g><rect x="401.23" y="169.69" width="5.18" height="10.44" transform="translate(807.63 349.82) rotate(180)" style="fill:#01B3EF;"></rect><rect x="401.23" y="169.69" width="5.18" height="10.44" transform="translate(807.63 349.82) rotate(180)" style="fill:#fff; opacity:.4;"></rect><path d="M401.23,171.41l5.18,4.36s0,2.61,0,2.59-5.18-4.08-5.18-4.05,0-2.89,0-2.89Z" style="fill:#fff; opacity:.2;"></path></g><g><rect x="390.84" y="169.69" width="5.18" height="10.44" transform="translate(786.87 349.82) rotate(180)" style="fill:#01B3EF;"></rect><rect x="390.84" y="169.69" width="5.18" height="10.44" transform="translate(786.87 349.82) rotate(180)" style="fill:#fff; opacity:.4;"></rect><path d="M390.84,171.41l5.18,4.36s0,2.61,0,2.59-5.18-4.08-5.18-4.05,0-2.89,0-2.89Z" style="fill:#fff; opacity:.2;"></path></g><rect x="421.09" y="180.11" width="6.68" height=".77" transform="translate(848.87 360.98) rotate(180)" style="fill:#fff;"></rect><rect x="410.8" y="180.11" width="6.68" height=".77" transform="translate(828.28 360.98) rotate(180)" style="fill:#fff;"></rect><rect x="400.5" y="180.11" width="6.68" height=".77" transform="translate(807.69 360.98) rotate(180)" style="fill:#fff;"></rect><rect x="390.21" y="180.11" width="6.68" height=".77" transform="translate(787.1 360.98) rotate(180)" style="fill:#fff;"></rect><g><rect x="380.64" y="169.69" width="5.18" height="10.44" transform="translate(766.45 349.82) rotate(180)" style="fill:#01B3EF;"></rect><rect x="380.64" y="169.69" width="5.18" height="10.44" transform="translate(766.45 349.82) rotate(180)" style="fill:#fff; opacity:.4;"></rect><path d="M380.64,171.41l5.18,4.36s0,2.61,0,2.59-5.18-4.08-5.18-4.05,0-2.89,0-2.89Z" style="fill:#fff; opacity:.2;"></path></g><rect x="380" y="180.11" width="6.68" height=".77" transform="translate(766.68 360.98) rotate(180)" style="fill:#fff;"></rect><rect x="422" y="169.69" width="5.18" height="10.44" transform="translate(849.17 349.82) rotate(180)" style="fill:#fff; opacity:.4;"></rect></g><g><g><rect x="422" y="190.73" width="5.18" height="10.44" transform="translate(849.17 391.91) rotate(180)" style="fill:#01B3EF;"></rect><path d="M422,192.45l5.18,4.36s0,2.61,0,2.59-5.18-4.08-5.18-4.06,0-2.89,0-2.89Z" style="fill:#fff; opacity:.2;"></path></g><g><rect x="411.61" y="190.73" width="5.18" height="10.44" transform="translate(828.4 391.91) rotate(180)" style="fill:#01B3EF;"></rect><rect x="411.61" y="190.73" width="5.18" height="10.44" transform="translate(828.4 391.91) rotate(180)" style="fill:#fff; opacity:.4;"></rect><path d="M411.61,192.45l5.18,4.36s0,2.61,0,2.59-5.18-4.08-5.18-4.06,0-2.89,0-2.89Z" style="fill:#fff; opacity:.2;"></path></g><g><rect x="401.23" y="190.73" width="5.18" height="10.44" transform="translate(807.63 391.91) rotate(180)" style="fill:#01B3EF;"></rect><rect x="401.23" y="190.73" width="5.18" height="10.44" transform="translate(807.63 391.91) rotate(180)" style="fill:#fff; opacity:.4;"></rect><path d="M401.23,192.45l5.18,4.36s0,2.61,0,2.59-5.18-4.08-5.18-4.06,0-2.89,0-2.89Z" style="fill:#fff; opacity:.2;"></path></g><g><rect x="390.84" y="190.73" width="5.18" height="10.44" transform="translate(786.87 391.91) rotate(180)" style="fill:#01B3EF;"></rect><rect x="390.84" y="190.73" width="5.18" height="10.44" transform="translate(786.87 391.91) rotate(180)" style="fill:#fff; opacity:.4;"></rect><path d="M390.84,192.45l5.18,4.36s0,2.61,0,2.59-5.18-4.08-5.18-4.06,0-2.89,0-2.89Z" style="fill:#fff; opacity:.2;"></path></g><rect x="421.09" y="201.15" width="6.68" height=".77" transform="translate(848.87 403.07) rotate(180)" style="fill:#fff;"></rect><rect x="410.8" y="201.15" width="6.68" height=".77" transform="translate(828.28 403.07) rotate(180)" style="fill:#fff;"></rect><rect x="400.5" y="201.15" width="6.68" height=".77" transform="translate(807.69 403.07) rotate(180)" style="fill:#fff;"></rect><rect x="390.21" y="201.15" width="6.68" height=".77" transform="translate(787.1 403.07) rotate(180)" style="fill:#fff;"></rect><g><rect x="380.64" y="190.73" width="5.18" height="10.44" transform="translate(766.45 391.91) rotate(180)" style="fill:#01B3EF;"></rect><rect x="380.64" y="190.73" width="5.18" height="10.44" transform="translate(766.45 391.91) rotate(180)" style="fill:#fff; opacity:.4;"></rect><path d="M380.64,192.45l5.18,4.36s0,2.61,0,2.59-5.18-4.08-5.18-4.06,0-2.89,0-2.89Z" style="fill:#fff; opacity:.2;"></path></g><rect x="380" y="201.15" width="6.68" height=".77" transform="translate(766.68 403.07) rotate(180)" style="fill:#fff;"></rect><rect x="422" y="190.73" width="5.18" height="10.44" transform="translate(849.17 391.91) rotate(180)" style="fill:#fff; opacity:.4;"></rect></g><polygon points="371.41 146.77 437.66 146.77 434.45 140.97 371.41 140.97 371.41 146.77" style="fill:#fff; opacity:.3;"></polygon><rect x="370.46" y="146.77" width="65.9" height=".87" transform="translate(806.82 294.41) rotate(180)" style="opacity:.2;"></rect></g><rect x="386" y="140.97" width="4.21" height="67.87" transform="translate(776.21 349.81) rotate(180)" style="opacity:.1;"></rect><g><rect x="59.7" y="146.77" width="65.9" height="62.19" style="fill:#263238;"></rect><rect x="59.7" y="146.77" width="65.9" height="62.19" style="fill:#fff; opacity:.5;"></rect><polygon points="124.65 146.77 58.4 146.77 61.62 140.97 124.65 140.97 124.65 146.77" style="fill:#263238;"></polygon><rect x="59.7" y="184.72" width="64.95" height=".77" rx=".37" ry=".37" style="fill:#fff;"></rect><rect x="59.78" y="185.11" width="65.9" height="23.85" style="fill:#fff; opacity:.3;"></rect><g><g><rect x="68.89" y="152.53" width="5.18" height="10.44" style="fill:#01B3EF;"></rect><path d="M74.07,154.24l-5.18,4.36s0,2.61,0,2.59,5.18-4.08,5.18-4.06,0-2.89,0-2.89Z" style="fill:#fff; opacity:.2;"></path></g><g><rect x="79.28" y="152.53" width="5.18" height="10.44" style="fill:#01B3EF;"></rect><rect x="79.28" y="152.53" width="5.18" height="10.44" style="fill:#fff; opacity:.4;"></rect><path d="M84.45,154.24l-5.18,4.36s0,2.61,0,2.59,5.18-4.08,5.18-4.06,0-2.89,0-2.89Z" style="fill:#fff; opacity:.2;"></path></g><g><rect x="89.66" y="152.53" width="5.18" height="10.44" style="fill:#01B3EF;"></rect><rect x="89.66" y="152.53" width="5.18" height="10.44" style="fill:#fff; opacity:.4;"></rect><path d="M94.84,154.24l-5.18,4.36s0,2.61,0,2.59,5.18-4.08,5.18-4.06,0-2.89,0-2.89Z" style="fill:#fff; opacity:.2;"></path></g><g><rect x="100.04" y="152.53" width="5.18" height="10.44" style="fill:#01B3EF;"></rect><rect x="100.04" y="152.53" width="5.18" height="10.44" style="fill:#fff; opacity:.4;"></rect><path d="M105.22,154.24l-5.18,4.36s0,2.61,0,2.59,5.18-4.08,5.18-4.06,0-2.89,0-2.89Z" style="fill:#fff; opacity:.2;"></path></g><rect x="68.29" y="162.95" width="6.68" height=".77" style="fill:#fff;"></rect><rect x="78.59" y="162.95" width="6.68" height=".77" style="fill:#fff;"></rect><rect x="88.88" y="162.95" width="6.68" height=".77" style="fill:#fff;"></rect><rect x="99.18" y="162.95" width="6.68" height=".77" style="fill:#fff;"></rect><g><rect x="110.25" y="152.53" width="5.18" height="10.44" style="fill:#01B3EF;"></rect><rect x="110.25" y="152.53" width="5.18" height="10.44" style="fill:#fff; opacity:.4;"></rect><path d="M115.43,154.24l-5.18,4.36s0,2.61,0,2.59,5.18-4.08,5.18-4.06,0-2.89,0-2.89Z" style="fill:#fff; opacity:.2;"></path></g><rect x="109.39" y="162.95" width="6.68" height=".77" style="fill:#fff;"></rect><rect x="68.89" y="152.53" width="5.18" height="10.44" style="fill:#fff; opacity:.4;"></rect></g><g><g><rect x="68.89" y="169.69" width="5.18" height="10.44" style="fill:#01B3EF;"></rect><path d="M74.07,171.41l-5.18,4.36s0,2.61,0,2.59,5.18-4.08,5.18-4.05,0-2.89,0-2.89Z" style="fill:#fff; opacity:.2;"></path></g><g><rect x="79.28" y="169.69" width="5.18" height="10.44" style="fill:#01B3EF;"></rect><rect x="79.28" y="169.69" width="5.18" height="10.44" style="fill:#fff; opacity:.4;"></rect><path d="M84.45,171.41l-5.18,4.36s0,2.61,0,2.59,5.18-4.08,5.18-4.05,0-2.89,0-2.89Z" style="fill:#fff; opacity:.2;"></path></g><g><rect x="89.66" y="169.69" width="5.18" height="10.44" style="fill:#01B3EF;"></rect><rect x="89.66" y="169.69" width="5.18" height="10.44" style="fill:#fff; opacity:.4;"></rect><path d="M94.84,171.41l-5.18,4.36s0,2.61,0,2.59,5.18-4.08,5.18-4.05,0-2.89,0-2.89Z" style="fill:#fff; opacity:.2;"></path></g><g><rect x="100.04" y="169.69" width="5.18" height="10.44" style="fill:#01B3EF;"></rect><rect x="100.04" y="169.69" width="5.18" height="10.44" style="fill:#fff; opacity:.4;"></rect><path d="M105.22,171.41l-5.18,4.36s0,2.61,0,2.59,5.18-4.08,5.18-4.05,0-2.89,0-2.89Z" style="fill:#fff; opacity:.2;"></path></g><rect x="68.29" y="180.11" width="6.68" height=".77" style="fill:#fff;"></rect><rect x="78.59" y="180.11" width="6.68" height=".77" style="fill:#fff;"></rect><rect x="88.88" y="180.11" width="6.68" height=".77" style="fill:#fff;"></rect><rect x="99.18" y="180.11" width="6.68" height=".77" style="fill:#fff;"></rect><g><rect x="110.25" y="169.69" width="5.18" height="10.44" style="fill:#01B3EF;"></rect><rect x="110.25" y="169.69" width="5.18" height="10.44" style="fill:#fff; opacity:.4;"></rect><path d="M115.43,171.41l-5.18,4.36s0,2.61,0,2.59,5.18-4.08,5.18-4.05,0-2.89,0-2.89Z" style="fill:#fff; opacity:.2;"></path></g><rect x="109.39" y="180.11" width="6.68" height=".77" style="fill:#fff;"></rect><rect x="68.89" y="169.69" width="5.18" height="10.44" style="fill:#fff; opacity:.4;"></rect></g><g><g><rect x="68.89" y="190.73" width="5.18" height="10.44" style="fill:#01B3EF;"></rect><path d="M74.07,192.45l-5.18,4.36s0,2.61,0,2.59,5.18-4.08,5.18-4.06,0-2.89,0-2.89Z" style="fill:#fff; opacity:.2;"></path></g><g><rect x="79.28" y="190.73" width="5.18" height="10.44" style="fill:#01B3EF;"></rect><rect x="79.28" y="190.73" width="5.18" height="10.44" style="fill:#fff; opacity:.4;"></rect><path d="M84.45,192.45l-5.18,4.36s0,2.61,0,2.59,5.18-4.08,5.18-4.06,0-2.89,0-2.89Z" style="fill:#fff; opacity:.2;"></path></g><g><rect x="89.66" y="190.73" width="5.18" height="10.44" style="fill:#01B3EF;"></rect><rect x="89.66" y="190.73" width="5.18" height="10.44" style="fill:#fff; opacity:.4;"></rect><path d="M94.84,192.45l-5.18,4.36s0,2.61,0,2.59,5.18-4.08,5.18-4.06,0-2.89,0-2.89Z" style="fill:#fff; opacity:.2;"></path></g><g><rect x="100.04" y="190.73" width="5.18" height="10.44" style="fill:#01B3EF;"></rect><rect x="100.04" y="190.73" width="5.18" height="10.44" style="fill:#fff; opacity:.4;"></rect><path d="M105.22,192.45l-5.18,4.36s0,2.61,0,2.59,5.18-4.08,5.18-4.06,0-2.89,0-2.89Z" style="fill:#fff; opacity:.2;"></path></g><rect x="68.29" y="201.15" width="6.68" height=".77" style="fill:#fff;"></rect><rect x="78.59" y="201.15" width="6.68" height=".77" style="fill:#fff;"></rect><rect x="88.88" y="201.15" width="6.68" height=".77" style="fill:#fff;"></rect><rect x="99.18" y="201.15" width="6.68" height=".77" style="fill:#fff;"></rect><g><rect x="110.25" y="190.73" width="5.18" height="10.44" style="fill:#01B3EF;"></rect><rect x="110.25" y="190.73" width="5.18" height="10.44" style="fill:#fff; opacity:.4;"></rect><path d="M115.43,192.45l-5.18,4.36s0,2.61,0,2.59,5.18-4.08,5.18-4.06,0-2.89,0-2.89Z" style="fill:#fff; opacity:.2;"></path></g><rect x="109.39" y="201.15" width="6.68" height=".77" style="fill:#fff;"></rect><rect x="68.89" y="190.73" width="5.18" height="10.44" style="fill:#fff; opacity:.4;"></rect></g><polygon points="124.65 146.77 58.4 146.77 61.62 140.97 124.65 140.97 124.65 146.77" style="fill:#fff; opacity:.3;"></polygon><rect x="59.7" y="146.77" width="65.9" height=".87" style="opacity:.2;"></rect></g><rect x="204.27" y="114.21" width="88.15" height="85.87" style="fill:#263238;"></rect><rect x="204.27" y="114.21" width="88.15" height="85.87" style="fill:#fff; opacity:.5;"></rect><rect x="209.23" y="167.74" width="79.19" height="30.71" style="fill:#fff; opacity:.3;"></rect><rect x="209.99" y="167.74" width="77.91" height="1.77" style="fill:#fff;"></rect><path d="M212.94,198.39c.89,0,0-75.28,0-75.28l4.66-3.74h65.06l2.33,2.33v76.7h8.18V112.81h-85.06s-1.31,87.85,0,86.54,4.84-.96,4.84-.96Z" style="opacity:.1;"></path><g><rect x="110.09" y="124.03" width="90" height="84.92" style="fill:#263238;"></rect><rect x="110.09" y="124.03" width="90" height="84.92" style="fill:#fff; opacity:.5;"></rect><polygon points="198.78 124.03 108.31 124.03 112.7 116.11 198.78 116.11 198.78 124.03" style="fill:#263238;"></polygon><path d="M110.59,175.86h87.68c.28,0,.51,.23,.51,.51v.04c0,.28-.23,.51-.51,.51H110.59c-.28,0-.51-.23-.51-.51v-.04c0-.28,.23-.51,.51-.51Z" style="fill:#fff;"></path><rect x="110.18" y="176.39" width="90" height="32.57" style="fill:#fff; opacity:.3;"></rect><g><g><rect x="122.63" y="131.9" width="7.07" height="14.26" style="fill:#01B3EF;"></rect><path d="M129.71,134.24l-7.07,5.95s0,3.56,0,3.53,7.07-5.57,7.07-5.54,0-3.95,0-3.95Z" style="fill:#fff; opacity:.2;"></path></g><g><rect x="136.81" y="131.9" width="7.07" height="14.26" style="fill:#01B3EF;"></rect><rect x="136.81" y="131.9" width="7.07" height="14.26" style="fill:#fff; opacity:.4;"></rect><path d="M143.89,134.24l-7.07,5.95s0,3.56,0,3.53,7.07-5.57,7.07-5.54,0-3.95,0-3.95Z" style="fill:#fff; opacity:.2;"></path></g><g><rect x="150.99" y="131.9" width="7.07" height="14.26" style="fill:#01B3EF;"></rect><rect x="150.99" y="131.9" width="7.07" height="14.26" style="fill:#fff; opacity:.4;"></rect><path d="M158.07,134.24l-7.07,5.95s0,3.56,0,3.53,7.07-5.57,7.07-5.54,0-3.95,0-3.95Z" style="fill:#fff; opacity:.2;"></path></g><g><rect x="165.17" y="131.9" width="7.07" height="14.26" style="fill:#01B3EF;"></rect><rect x="165.17" y="131.9" width="7.07" height="14.26" style="fill:#fff; opacity:.4;"></rect><path d="M172.25,134.24l-7.07,5.95s0,3.56,0,3.53,7.07-5.57,7.07-5.54,0-3.95,0-3.95Z" style="fill:#fff; opacity:.2;"></path></g><rect x="121.81" y="146.13" width="9.12" height="1.05" style="fill:#fff;"></rect><rect x="135.87" y="146.13" width="9.12" height="1.05" style="fill:#fff;"></rect><rect x="149.93" y="146.13" width="9.12" height="1.05" style="fill:#fff;"></rect><rect x="163.99" y="146.13" width="9.12" height="1.05" style="fill:#fff;"></rect><g><rect x="179.12" y="131.9" width="7.07" height="14.26" style="fill:#01B3EF;"></rect><rect x="179.12" y="131.9" width="7.07" height="14.26" style="fill:#fff; opacity:.4;"></rect><path d="M186.19,134.24l-7.07,5.95s0,3.56,0,3.53,7.07-5.57,7.07-5.54,0-3.95,0-3.95Z" style="fill:#fff; opacity:.2;"></path></g><rect x="177.93" y="146.13" width="9.12" height="1.05" style="fill:#fff;"></rect><rect x="122.63" y="131.9" width="7.07" height="14.26" style="fill:#fff; opacity:.4;"></rect></g><g><g><rect x="122.63" y="155.33" width="7.07" height="14.26" style="fill:#01B3EF;"></rect><path d="M129.71,157.68l-7.07,5.95s0,3.56,0,3.53,7.07-5.57,7.07-5.54,0-3.95,0-3.95Z" style="fill:#fff; opacity:.2;"></path></g><g><rect x="136.81" y="155.33" width="7.07" height="14.26" style="fill:#01B3EF;"></rect><rect x="136.81" y="155.33" width="7.07" height="14.26" style="fill:#fff; opacity:.4;"></rect><path d="M143.89,157.68l-7.07,5.95s0,3.56,0,3.53,7.07-5.57,7.07-5.54,0-3.95,0-3.95Z" style="fill:#fff; opacity:.2;"></path></g><g><rect x="150.99" y="155.33" width="7.07" height="14.26" style="fill:#01B3EF;"></rect><rect x="150.99" y="155.33" width="7.07" height="14.26" style="fill:#fff; opacity:.4;"></rect><path d="M158.07,157.68l-7.07,5.95s0,3.56,0,3.53,7.07-5.57,7.07-5.54,0-3.95,0-3.95Z" style="fill:#fff; opacity:.2;"></path></g><g><rect x="165.17" y="155.33" width="7.07" height="14.26" style="fill:#01B3EF;"></rect><rect x="165.17" y="155.33" width="7.07" height="14.26" style="fill:#fff; opacity:.4;"></rect><path d="M172.25,157.68l-7.07,5.95s0,3.56,0,3.53,7.07-5.57,7.07-5.54,0-3.95,0-3.95Z" style="fill:#fff; opacity:.2;"></path></g><rect x="121.81" y="169.56" width="9.12" height="1.05" style="fill:#fff;"></rect><rect x="135.87" y="169.56" width="9.12" height="1.05" style="fill:#fff;"></rect><rect x="149.93" y="169.56" width="9.12" height="1.05" style="fill:#fff;"></rect><rect x="163.99" y="169.56" width="9.12" height="1.05" style="fill:#fff;"></rect><g><rect x="179.12" y="155.33" width="7.07" height="14.26" style="fill:#01B3EF;"></rect><rect x="179.12" y="155.33" width="7.07" height="14.26" style="fill:#fff; opacity:.4;"></rect><path d="M186.19,157.68l-7.07,5.95s0,3.56,0,3.53,7.07-5.57,7.07-5.54,0-3.95,0-3.95Z" style="fill:#fff; opacity:.2;"></path></g><rect x="177.93" y="169.56" width="9.12" height="1.05" style="fill:#fff;"></rect><rect x="122.63" y="155.33" width="7.07" height="14.26" style="fill:#fff; opacity:.4;"></rect></g><g><g><rect x="122.63" y="184.07" width="7.07" height="14.26" style="fill:#01B3EF;"></rect><path d="M129.71,186.42l-7.07,5.95s0,3.56,0,3.53,7.07-5.57,7.07-5.54,0-3.95,0-3.95Z" style="fill:#fff; opacity:.2;"></path></g><g><rect x="136.81" y="184.07" width="7.07" height="14.26" style="fill:#01B3EF;"></rect><rect x="136.81" y="184.07" width="7.07" height="14.26" style="fill:#fff; opacity:.4;"></rect><path d="M143.89,186.42l-7.07,5.95s0,3.56,0,3.53,7.07-5.57,7.07-5.54,0-3.95,0-3.95Z" style="fill:#fff; opacity:.2;"></path></g><g><rect x="150.99" y="184.07" width="7.07" height="14.26" style="fill:#01B3EF;"></rect><rect x="150.99" y="184.07" width="7.07" height="14.26" style="fill:#fff; opacity:.4;"></rect><path d="M158.07,186.42l-7.07,5.95s0,3.56,0,3.53,7.07-5.57,7.07-5.54,0-3.95,0-3.95Z" style="fill:#fff; opacity:.2;"></path></g><g><rect x="165.17" y="184.07" width="7.07" height="14.26" style="fill:#01B3EF;"></rect><rect x="165.17" y="184.07" width="7.07" height="14.26" style="fill:#fff; opacity:.4;"></rect><path d="M172.25,186.42l-7.07,5.95s0,3.56,0,3.53,7.07-5.57,7.07-5.54,0-3.95,0-3.95Z" style="fill:#fff; opacity:.2;"></path></g><rect x="121.81" y="198.3" width="9.12" height="1.05" style="fill:#fff;"></rect><rect x="135.87" y="198.3" width="9.12" height="1.05" style="fill:#fff;"></rect><rect x="149.93" y="198.3" width="9.12" height="1.05" style="fill:#fff;"></rect><rect x="163.99" y="198.3" width="9.12" height="1.05" style="fill:#fff;"></rect><g><rect x="179.12" y="184.07" width="7.07" height="14.26" style="fill:#01B3EF;"></rect><rect x="179.12" y="184.07" width="7.07" height="14.26" style="fill:#fff; opacity:.4;"></rect><path d="M186.19,186.42l-7.07,5.95s0,3.56,0,3.53,7.07-5.57,7.07-5.54,0-3.95,0-3.95Z" style="fill:#fff; opacity:.2;"></path></g><rect x="177.93" y="198.3" width="9.12" height="1.05" style="fill:#fff;"></rect><rect x="122.63" y="184.07" width="7.07" height="14.26" style="fill:#fff; opacity:.4;"></rect></g><polygon points="198.78 124.03 108.31 124.03 112.7 116.11 198.78 116.11 198.78 124.03" style="fill:#fff; opacity:.3;"></polygon><rect x="110.09" y="124.03" width="90" height="1.19" style="opacity:.2;"></rect></g><g><rect x="296.85" y="123.63" width="90" height="84.92" transform="translate(683.69 332.19) rotate(180)" style="fill:#263238;"></rect><rect x="296.85" y="123.63" width="90" height="84.92" transform="translate(683.69 332.19) rotate(180)" style="fill:#fff; opacity:.5;"></rect><polygon points="298.15 123.63 388.62 123.63 384.23 115.72 298.15 115.72 298.15 123.63" style="fill:#263238;"></polygon><path d="M298.66,175.46h87.68c.28,0,.51,.23,.51,.51v.04c0,.28-.23,.51-.51,.51h-87.68c-.28,0-.51-.23-.51-.51v-.04c0-.28,.23-.51,.51-.51Z" transform="translate(685 351.98) rotate(180)" style="fill:#fff;"></path><rect x="296.75" y="175.99" width="90" height="32.57" transform="translate(683.5 384.55) rotate(180)" style="fill:#fff; opacity:.3;"></rect><g><g><rect x="367.23" y="131.5" width="7.07" height="14.26" transform="translate(741.52 277.26) rotate(180)" style="fill:#01B3EF;"></rect><path d="M367.23,133.84l7.07,5.95s0,3.56,0,3.53-7.07-5.57-7.07-5.54,0-3.95,0-3.95Z" style="fill:#fff; opacity:.2;"></path></g><g><rect x="353.05" y="131.5" width="7.07" height="14.26" transform="translate(713.16 277.26) rotate(180)" style="fill:#01B3EF;"></rect><rect x="353.05" y="131.5" width="7.07" height="14.26" transform="translate(713.16 277.26) rotate(180)" style="fill:#fff; opacity:.4;"></rect><path d="M353.05,133.84l7.07,5.95s0,3.56,0,3.53-7.07-5.57-7.07-5.54,0-3.95,0-3.95Z" style="fill:#fff; opacity:.2;"></path></g><g><rect x="338.87" y="131.5" width="7.07" height="14.26" transform="translate(684.8 277.26) rotate(180)" style="fill:#01B3EF;"></rect><rect x="338.87" y="131.5" width="7.07" height="14.26" transform="translate(684.8 277.26) rotate(180)" style="fill:#fff; opacity:.4;"></rect><path d="M338.87,133.84l7.07,5.95s0,3.56,0,3.53-7.07-5.57-7.07-5.54,0-3.95,0-3.95Z" style="fill:#fff; opacity:.2;"></path></g><g><rect x="324.69" y="131.5" width="7.07" height="14.26" transform="translate(656.44 277.26) rotate(180)" style="fill:#01B3EF;"></rect><rect x="324.69" y="131.5" width="7.07" height="14.26" transform="translate(656.44 277.26) rotate(180)" style="fill:#fff; opacity:.4;"></rect><path d="M324.69,133.84l7.07,5.95s0,3.56,0,3.53-7.07-5.57-7.07-5.54,0-3.95,0-3.95Z" style="fill:#fff; opacity:.2;"></path></g><rect x="366" y="145.73" width="9.12" height="1.05" transform="translate(741.12 292.5) rotate(180)" style="fill:#fff;"></rect><rect x="351.94" y="145.73" width="9.12" height="1.05" transform="translate(713 292.5) rotate(180)" style="fill:#fff;"></rect><rect x="337.88" y="145.73" width="9.12" height="1.05" transform="translate(684.88 292.5) rotate(180)" style="fill:#fff;"></rect><rect x="323.82" y="145.73" width="9.12" height="1.05" transform="translate(656.76 292.5) rotate(180)" style="fill:#fff;"></rect><g><rect x="310.74" y="131.5" width="7.07" height="14.26" transform="translate(628.56 277.26) rotate(180)" style="fill:#01B3EF;"></rect><rect x="310.74" y="131.5" width="7.07" height="14.26" transform="translate(628.56 277.26) rotate(180)" style="fill:#fff; opacity:.4;"></rect><path d="M310.74,133.84l7.07,5.95s0,3.56,0,3.53-7.07-5.57-7.07-5.54,0-3.95,0-3.95Z" style="fill:#fff; opacity:.2;"></path></g><rect x="309.88" y="145.73" width="9.12" height="1.05" transform="translate(628.88 292.5) rotate(180)" style="fill:#fff;"></rect><rect x="367.23" y="131.5" width="7.07" height="14.26" transform="translate(741.52 277.26) rotate(180)" style="fill:#fff; opacity:.4;"></rect></g><g><g><rect x="367.23" y="154.94" width="7.07" height="14.26" transform="translate(741.52 324.13) rotate(180)" style="fill:#01B3EF;"></rect><path d="M367.23,157.28l7.07,5.95s0,3.56,0,3.53-7.07-5.57-7.07-5.54,0-3.95,0-3.95Z" style="fill:#fff; opacity:.2;"></path></g><g><rect x="353.05" y="154.94" width="7.07" height="14.26" transform="translate(713.16 324.13) rotate(180)" style="fill:#01B3EF;"></rect><rect x="353.05" y="154.94" width="7.07" height="14.26" transform="translate(713.16 324.13) rotate(180)" style="fill:#fff; opacity:.4;"></rect><path d="M353.05,157.28l7.07,5.95s0,3.56,0,3.53-7.07-5.57-7.07-5.54,0-3.95,0-3.95Z" style="fill:#fff; opacity:.2;"></path></g><g><rect x="338.87" y="154.94" width="7.07" height="14.26" transform="translate(684.8 324.13) rotate(180)" style="fill:#01B3EF;"></rect><rect x="338.87" y="154.94" width="7.07" height="14.26" transform="translate(684.8 324.13) rotate(180)" style="fill:#fff; opacity:.4;"></rect><path d="M338.87,157.28l7.07,5.95s0,3.56,0,3.53-7.07-5.57-7.07-5.54,0-3.95,0-3.95Z" style="fill:#fff; opacity:.2;"></path></g><g><rect x="324.69" y="154.94" width="7.07" height="14.26" transform="translate(656.44 324.13) rotate(180)" style="fill:#01B3EF;"></rect><rect x="324.69" y="154.94" width="7.07" height="14.26" transform="translate(656.44 324.13) rotate(180)" style="fill:#fff; opacity:.4;"></rect><path d="M324.69,157.28l7.07,5.95s0,3.56,0,3.53-7.07-5.57-7.07-5.54,0-3.95,0-3.95Z" style="fill:#fff; opacity:.2;"></path></g><rect x="366" y="169.17" width="9.12" height="1.05" transform="translate(741.12 339.38) rotate(180)" style="fill:#fff;"></rect><rect x="351.94" y="169.17" width="9.12" height="1.05" transform="translate(713 339.38) rotate(180)" style="fill:#fff;"></rect><rect x="337.88" y="169.17" width="9.12" height="1.05" transform="translate(684.88 339.38) rotate(180)" style="fill:#fff;"></rect><rect x="323.82" y="169.17" width="9.12" height="1.05" transform="translate(656.76 339.38) rotate(180)" style="fill:#fff;"></rect><g><rect x="310.74" y="154.94" width="7.07" height="14.26" transform="translate(628.56 324.13) rotate(180)" style="fill:#01B3EF;"></rect><rect x="310.74" y="154.94" width="7.07" height="14.26" transform="translate(628.56 324.13) rotate(180)" style="fill:#fff; opacity:.4;"></rect><path d="M310.74,157.28l7.07,5.95s0,3.56,0,3.53-7.07-5.57-7.07-5.54,0-3.95,0-3.95Z" style="fill:#fff; opacity:.2;"></path></g><rect x="309.88" y="169.17" width="9.12" height="1.05" transform="translate(628.88 339.38) rotate(180)" style="fill:#fff;"></rect><rect x="367.23" y="154.94" width="7.07" height="14.26" transform="translate(741.52 324.13) rotate(180)" style="fill:#fff; opacity:.4;"></rect></g><g><g><rect x="367.23" y="183.68" width="7.07" height="14.26" transform="translate(741.52 381.61) rotate(180)" style="fill:#01B3EF;"></rect><path d="M367.23,186.02l7.07,5.95s0,3.56,0,3.53-7.07-5.57-7.07-5.54,0-3.95,0-3.95Z" style="fill:#fff; opacity:.2;"></path></g><g><rect x="353.05" y="183.68" width="7.07" height="14.26" transform="translate(713.16 381.61) rotate(180)" style="fill:#01B3EF;"></rect><rect x="353.05" y="183.68" width="7.07" height="14.26" transform="translate(713.16 381.61) rotate(180)" style="fill:#fff; opacity:.4;"></rect><path d="M353.05,186.02l7.07,5.95s0,3.56,0,3.53-7.07-5.57-7.07-5.54,0-3.95,0-3.95Z" style="fill:#fff; opacity:.2;"></path></g><g><rect x="338.87" y="183.68" width="7.07" height="14.26" transform="translate(684.8 381.61) rotate(180)" style="fill:#01B3EF;"></rect><rect x="338.87" y="183.68" width="7.07" height="14.26" transform="translate(684.8 381.61) rotate(180)" style="fill:#fff; opacity:.4;"></rect><path d="M338.87,186.02l7.07,5.95s0,3.56,0,3.53-7.07-5.57-7.07-5.54,0-3.95,0-3.95Z" style="fill:#fff; opacity:.2;"></path></g><g><rect x="324.69" y="183.68" width="7.07" height="14.26" transform="translate(656.44 381.61) rotate(180)" style="fill:#01B3EF;"></rect><rect x="324.69" y="183.68" width="7.07" height="14.26" transform="translate(656.44 381.61) rotate(180)" style="fill:#fff; opacity:.4;"></rect><path d="M324.69,186.02l7.07,5.95s0,3.56,0,3.53-7.07-5.57-7.07-5.54,0-3.95,0-3.95Z" style="fill:#fff; opacity:.2;"></path></g><rect x="366" y="197.91" width="9.12" height="1.05" transform="translate(741.12 396.86) rotate(180)" style="fill:#fff;"></rect><rect x="351.94" y="197.91" width="9.12" height="1.05" transform="translate(713 396.86) rotate(180)" style="fill:#fff;"></rect><rect x="337.88" y="197.91" width="9.12" height="1.05" transform="translate(684.88 396.86) rotate(180)" style="fill:#fff;"></rect><rect x="323.82" y="197.91" width="9.12" height="1.05" transform="translate(656.76 396.86) rotate(180)" style="fill:#fff;"></rect><g><rect x="310.74" y="183.68" width="7.07" height="14.26" transform="translate(628.56 381.61) rotate(180)" style="fill:#01B3EF;"></rect><rect x="310.74" y="183.68" width="7.07" height="14.26" transform="translate(628.56 381.61) rotate(180)" style="fill:#fff; opacity:.4;"></rect><path d="M310.74,186.02l7.07,5.95s0,3.56,0,3.53-7.07-5.57-7.07-5.54,0-3.95,0-3.95Z" style="fill:#fff; opacity:.2;"></path></g><rect x="309.88" y="197.91" width="9.12" height="1.05" transform="translate(628.88 396.86) rotate(180)" style="fill:#fff;"></rect><rect x="367.23" y="183.68" width="7.07" height="14.26" transform="translate(741.52 381.61) rotate(180)" style="fill:#fff; opacity:.4;"></rect></g><polygon points="298.15 123.63 388.62 123.63 384.23 115.72 298.15 115.72 298.15 123.63" style="fill:#fff; opacity:.3;"></polygon><rect x="296.85" y="123.63" width="90" height="1.19" transform="translate(683.69 248.46) rotate(180)" style="opacity:.2;"></rect></g><g><g><rect x="222.18" y="130.9" width="7.71" height="20.14" style="fill:#01B3EF;"></rect><rect x="222.18" y="130.9" width="7.71" height="20.14" style="fill:#fff; opacity:.4;"></rect><path d="M229.88,134.21l-7.71,8.41s0,5.04,0,4.99,7.71-7.87,7.71-7.82,0-5.58,0-5.58Z" style="fill:#fff; opacity:.2;"></path></g><g><rect x="237.63" y="130.9" width="7.71" height="20.14" style="fill:#01B3EF;"></rect><rect x="237.63" y="130.9" width="7.71" height="20.14" style="fill:#fff; opacity:.4;"></rect><path d="M245.34,134.21l-7.71,8.41s0,5.04,0,4.99,7.71-7.87,7.71-7.82,0-5.58,0-5.58Z" style="fill:#fff; opacity:.2;"></path></g><g><rect x="253.08" y="130.9" width="7.71" height="20.14" style="fill:#01B3EF;"></rect><rect x="253.08" y="130.9" width="7.71" height="20.14" style="fill:#fff; opacity:.4;"></rect><path d="M260.79,134.21l-7.71,8.41s0,5.04,0,4.99,7.71-7.87,7.71-7.82,0-5.58,0-5.58Z" style="fill:#fff; opacity:.2;"></path></g><g><rect x="268.53" y="130.9" width="7.71" height="20.14" style="fill:#01B3EF;"></rect><rect x="268.53" y="130.9" width="7.71" height="20.14" style="fill:#fff; opacity:.4;"></rect><path d="M276.24,134.21l-7.71,8.41s0,5.04,0,4.99,7.71-7.87,7.71-7.82,0-5.58,0-5.58Z" style="fill:#fff; opacity:.2;"></path></g><rect x="221.28" y="151.01" width="9.94" height="1.14" style="fill:#fff;"></rect><rect x="236.6" y="151.01" width="9.94" height="1.14" style="fill:#fff;"></rect><rect x="251.92" y="151.01" width="9.94" height="1.14" style="fill:#fff;"></rect><rect x="267.24" y="151.01" width="9.94" height="1.14" style="fill:#fff;"></rect></g><g><g><polygon points="196.08 117.43 196.08 114.21 212.94 114.21 212.94 117.43 209.75 119.37 198.78 119.37 196.08 117.43" style="fill:#263238;"></polygon><rect x="198.78" y="119.37" width="10.97" height="82.56" style="fill:#263238;"></rect></g><g style="opacity:.4;"><polygon points="196.08 117.43 196.08 114.21 212.94 114.21 212.94 117.43 209.75 119.37 198.78 119.37 196.08 117.43" style="fill:#fff;"></polygon><rect x="198.78" y="119.37" width="10.97" height="82.56" style="fill:#fff;"></rect></g><polygon points="196.08 117.43 212.94 117.43 209.75 119.37 198.78 119.37 196.08 117.43" style="opacity:.2;"></polygon><g><rect x="200.92" y="121.47" width=".94" height="78.35" rx=".45" ry=".45" style="opacity:.2;"></rect><rect x="204.04" y="121.47" width=".94" height="78.35" rx=".45" ry=".45" style="opacity:.2;"></rect><rect x="207.16" y="121.47" width=".94" height="78.35" rx=".45" ry=".45" style="opacity:.2;"></rect></g></g><g><g><polygon points="285.2 117.43 285.2 114.21 302.06 114.21 302.06 117.43 298.87 119.37 287.9 119.37 285.2 117.43" style="fill:#263238;"></polygon><rect x="287.9" y="119.37" width="10.97" height="82.56" style="fill:#263238;"></rect></g><g style="opacity:.4;"><polygon points="285.2 117.43 285.2 114.21 302.06 114.21 302.06 117.43 298.87 119.37 287.9 119.37 285.2 117.43" style="fill:#fff;"></polygon><rect x="287.9" y="119.37" width="10.97" height="82.56" style="fill:#fff;"></rect></g><polygon points="285.2 117.43 302.06 117.43 298.87 119.37 287.9 119.37 285.2 117.43" style="opacity:.2;"></polygon><g><rect x="290.04" y="121.47" width=".94" height="78.35" rx=".45" ry=".45" style="opacity:.2;"></rect><rect x="293.16" y="121.47" width=".94" height="78.35" rx=".45" ry=".45" style="opacity:.2;"></rect><rect x="296.28" y="121.47" width=".94" height="78.35" rx=".45" ry=".45" style="opacity:.2;"></rect></g></g><g><rect x="181.95" y="201.93" width="130.46" height="3.53" style="fill:#263238;"></rect><rect x="187.19" y="198.39" width="120.3" height="3.53" style="fill:#263238;"></rect><rect x="176.82" y="205.42" width="139.88" height="3.53" style="fill:#263238;"></rect></g><g><path d="M190.74,107.84c.58,0,58.86-27.89,58.86-27.89l58.47,27.89h-117.33Z" style="fill:#263238;"></path><path d="M204.11,104.9c8.41-3.96,22.32-10.59,45.49-21.68l45.45,21.68h-90.94Z" style="fill:#fff; opacity:.2;"></path><path d="M190.74,107.84c.58,0,58.86-27.89,58.86-27.89l58.47,27.89h-117.33Z" style="fill:#fff; opacity:.3;"></path><g><polygon points="308.07 114.21 191.91 114.21 190.57 114.21 190.57 107.84 308.07 107.84 308.07 114.21" style="fill:#263238;"></polygon><polygon points="308.07 114.21 191.91 114.21 190.57 114.21 190.57 107.84 308.07 107.84 308.07 114.21" style="fill:#fff; opacity:.3;"></polygon></g><rect x="190.57" y="107.84" width="117.5" height=".78" style="opacity:.2;"></rect><path d="M206.87,103.6c.5-.26,85.21-.12,85.21-.12l2.97,1.42h-90.94l2.75-1.3Z" style="opacity:.2;"></path></g><g style="opacity:.3;"><rect x="181.95" y="201.93" width="130.46" height="3.53" style="fill:#fff;"></rect><rect x="187.19" y="198.39" width="120.3" height="3.53" style="fill:#fff;"></rect><rect x="176.82" y="205.42" width="139.88" height="3.53" style="fill:#fff;"></rect></g><rect x="187.19" y="201.12" width="120.3" height=".81" style="opacity:.2;"></rect><rect x="181.95" y="204.61" width="130.46" height=".81" style="opacity:.2;"></rect><rect x="176.85" y="208.15" width="139.84" height=".81" style="opacity:.2;"></rect><g><rect x="222.51" y="174.42" width="55.4" height="23.96" style="fill:#263238;"></rect><rect x="222.51" y="174.42" width="55.4" height="23.96" style="fill:#fff; opacity:.5;"></rect><rect x="224.03" y="175.85" width="11.15" height="22.53" style="fill:#01B3EF;"></rect><rect x="224.03" y="175.85" width="11.15" height="22.53" style="fill:#fff; opacity:.4;"></rect><rect x="265.07" y="175.85" width="11.59" height="22.53" style="fill:#01B3EF;"></rect><rect x="236.67" y="175.85" width="12.65" height="22.53" style="fill:#01B3EF;"></rect><rect x="236.67" y="175.85" width="12.65" height="22.53" style="fill:#fff; opacity:.4;"></rect><rect x="251.01" y="175.85" width="12.65" height="22.53" style="fill:#01B3EF;"></rect><rect x="265.07" y="175.85" width="11.59" height="22.53" style="fill:#fff; opacity:.4;"></rect><rect x="251.01" y="175.85" width="12.65" height="22.53" style="fill:#fff; opacity:.4;"></rect><rect x="236.3" y="178.02" width="27.48" height=".76" style="fill:#263238;"></rect><rect x="236.3" y="178.02" width="27.48" height=".76" style="fill:#fff; opacity:.5;"></rect><path d="M235.18,178.03c0-.08-11.15,8.14-11.15,8.37v5.67l11.15-8.38v-5.67Z" style="fill:#fff; opacity:.2;"></path><polyline points="235.18 186.4 224.03 194.54 224.03 196.2 235.18 188 235.18 186.76" style="fill:#fff; opacity:.2;"></polyline><path d="M276.66,178.03c0-.08-11.59,8.14-11.59,8.37v5.67l11.59-8.38v-5.67Z" style="fill:#fff; opacity:.2;"></path><polyline points="276.66 186.4 265.07 194.54 265.07 196.2 276.66 188 276.66 186.76" style="fill:#fff; opacity:.2;"></polyline><polygon points="249.32 180.91 236.67 188.35 236.67 193.29 249.32 185.39 249.32 180.91" style="fill:#fff; opacity:.2;"></polygon><polygon points="263.66 184.13 251.01 192.22 251.01 197.15 263.66 189.25 263.66 184.13" style="fill:#fff; opacity:.2;"></polygon><g><rect x="247.36" y="185.99" width="1.96" height="6.08" style="fill:#263238;"></rect><rect x="247.36" y="185.99" width="1.96" height="6.08" style="fill:#fff; opacity:.7;"></rect></g><g><rect x="251.02" y="185.99" width="1.96" height="6.08" style="fill:#263238;"></rect><rect x="251.02" y="185.99" width="1.96" height="6.08" style="fill:#fff; opacity:.7;"></rect></g></g><rect x="105.86" y="140.97" width="4.21" height="67.87" style="opacity:.1;"></rect></g></g><g id="freepik--Trees--inject-84"><g><g><path d="M54.89,174.59c-.73-.71-1.9-.68-2.61,.05l-.03,.04c-1.92,2.11-5.22,6.1-4.07,7.59,.42,.55,2.68-.76,2.68-.76,0,0,.4,1.23,.79,1.32,.69,.15,2.35-1.59,2.35-1.59,0,0,1.38,1.69,2.01,1.59,.48-.07,1.11-1.59,1.11-1.59,0,0,2.04,1.34,2.43,.83,1.16-1.53-2.54-5.45-4.65-7.47Z" style="fill:#01B3EF;"></path><path d="M54.89,174.59c-.73-.71-1.9-.68-2.61,.05l-.03,.04c-1.92,2.11-5.22,6.1-4.07,7.59,.42,.55,2.68-.76,2.68-.76,0,0,.4,1.23,.79,1.32,.69,.15,2.35-1.59,2.35-1.59,0,0,1.38,1.69,2.01,1.59,.48-.07,1.11-1.59,1.11-1.59,0,0,2.04,1.34,2.43,.83,1.16-1.53-2.54-5.45-4.65-7.47Z" style="opacity:.3;"></path><polygon points="53.26 182.83 52.43 207.98 54.61 207.98 53.78 182.83 53.26 182.83" style="fill:#263238;"></polygon><path d="M53.29,188.33s-11.96,11.85-9.23,15.41c.73,.95,4.62-1.32,4.62-1.32,0,0,.71,2.13,1.36,2.27,1.2,.27,4.06-2.75,4.06-2.75,0,0,2.37,2.91,3.46,2.75,.83-.12,1.91-2.75,1.91-2.75,0,0,3.51,2.31,4.18,1.44,2.76-3.65-10.37-15.06-10.37-15.06Z" style="fill:#01B3EF;"></path><path d="M53.29,188.33s-11.96,11.85-9.23,15.41c.73,.95,4.62-1.32,4.62-1.32,0,0,.71,2.13,1.36,2.27,1.2,.27,4.06-2.75,4.06-2.75,0,0,2.37,2.91,3.46,2.75,.83-.12,1.91-2.75,1.91-2.75,0,0,3.51,2.31,4.18,1.44,2.76-3.65-10.37-15.06-10.37-15.06Z" style="opacity:.3;"></path><path d="M53.45,177.41s-8.47,8.39-6.53,10.91c.52,.67,3.27-.93,3.27-.93,0,0,.51,1.51,.96,1.61,.85,.19,2.87-1.95,2.87-1.95,0,0,1.68,2.06,2.45,1.95,.59-.09,1.35-1.95,1.35-1.95,0,0,2.49,1.64,2.96,1.01,1.96-2.57-7.34-10.65-7.34-10.65Z" style="fill:#01B3EF;"></path><path d="M53.45,177.41s-8.47,8.39-6.53,10.91c.52,.67,3.27-.93,3.27-.93,0,0,.51,1.51,.96,1.61,.85,.19,2.87-1.95,2.87-1.95,0,0,1.68,2.06,2.45,1.95,.59-.09,1.35-1.95,1.35-1.95,0,0,2.49,1.64,2.96,1.01,1.96-2.57-7.34-10.65-7.34-10.65Z" style="opacity:.3;"></path><path d="M53.36,181.97s-10.39,10.29-8.01,13.39c.63,.83,4.01-1.14,4.01-1.14,0,0,.62,1.85,1.18,1.97,1.04,.23,3.53-2.39,3.53-2.39,0,0,2.06,2.53,3.01,2.39,.72-.11,1.66-2.39,1.66-2.39,0,0,3.05,2.01,3.63,1.25,2.4-3.16-9-13.07-9-13.07Z" style="fill:#01B3EF;"></path><path d="M53.36,181.97s-10.39,10.29-8.01,13.39c.63,.83,4.01-1.14,4.01-1.14,0,0,.62,1.85,1.18,1.97,1.04,.23,3.53-2.39,3.53-2.39,0,0,2.06,2.53,3.01,2.39,.72-.11,1.66-2.39,1.66-2.39,0,0,3.05,2.01,3.63,1.25,2.4-3.16-9-13.07-9-13.07Z" style="opacity:.3;"></path></g><g><path d="M84.95,174.59c-.73-.71-1.9-.68-2.61,.05l-.03,.04c-1.92,2.11-5.22,6.1-4.07,7.59,.42,.55,2.68-.76,2.68-.76,0,0,.4,1.23,.79,1.32,.69,.15,2.35-1.59,2.35-1.59,0,0,1.38,1.69,2.01,1.59,.48-.07,1.11-1.59,1.11-1.59,0,0,2.04,1.34,2.43,.83,1.16-1.53-2.54-5.45-4.65-7.47Z" style="fill:#01B3EF;"></path><path d="M84.95,174.59c-.73-.71-1.9-.68-2.61,.05l-.03,.04c-1.92,2.11-5.22,6.1-4.07,7.59,.42,.55,2.68-.76,2.68-.76,0,0,.4,1.23,.79,1.32,.69,.15,2.35-1.59,2.35-1.59,0,0,1.38,1.69,2.01,1.59,.48-.07,1.11-1.59,1.11-1.59,0,0,2.04,1.34,2.43,.83,1.16-1.53-2.54-5.45-4.65-7.47Z" style="opacity:.3;"></path><polygon points="83.33 182.83 82.5 207.98 84.68 207.98 83.85 182.83 83.33 182.83" style="fill:#263238;"></polygon><path d="M83.36,188.33s-11.96,11.85-9.23,15.41c.73,.95,4.62-1.32,4.62-1.32,0,0,.71,2.13,1.36,2.27,1.2,.27,4.06-2.75,4.06-2.75,0,0,2.37,2.91,3.46,2.75,.83-.12,1.91-2.75,1.91-2.75,0,0,3.51,2.31,4.18,1.44,2.76-3.65-10.37-15.06-10.37-15.06Z" style="fill:#01B3EF;"></path><path d="M83.36,188.33s-11.96,11.85-9.23,15.41c.73,.95,4.62-1.32,4.62-1.32,0,0,.71,2.13,1.36,2.27,1.2,.27,4.06-2.75,4.06-2.75,0,0,2.37,2.91,3.46,2.75,.83-.12,1.91-2.75,1.91-2.75,0,0,3.51,2.31,4.18,1.44,2.76-3.65-10.37-15.06-10.37-15.06Z" style="opacity:.3;"></path><path d="M83.52,177.41s-8.47,8.39-6.53,10.91c.52,.67,3.27-.93,3.27-.93,0,0,.51,1.51,.96,1.61,.85,.19,2.87-1.95,2.87-1.95,0,0,1.68,2.06,2.45,1.95,.59-.09,1.35-1.95,1.35-1.95,0,0,2.49,1.64,2.96,1.01,1.96-2.57-7.34-10.65-7.34-10.65Z" style="fill:#01B3EF;"></path><path d="M83.52,177.41s-8.47,8.39-6.53,10.91c.52,.67,3.27-.93,3.27-.93,0,0,.51,1.51,.96,1.61,.85,.19,2.87-1.95,2.87-1.95,0,0,1.68,2.06,2.45,1.95,.59-.09,1.35-1.95,1.35-1.95,0,0,2.49,1.64,2.96,1.01,1.96-2.57-7.34-10.65-7.34-10.65Z" style="opacity:.3;"></path><path d="M83.43,181.97s-10.39,10.29-8.01,13.39c.63,.83,4.01-1.14,4.01-1.14,0,0,.62,1.85,1.18,1.97,1.04,.23,3.53-2.39,3.53-2.39,0,0,2.06,2.53,3.01,2.39,.72-.11,1.66-2.39,1.66-2.39,0,0,3.05,2.01,3.63,1.25,2.39-3.16-9-13.07-9-13.07Z" style="fill:#01B3EF;"></path><path d="M83.43,181.97s-10.39,10.29-8.01,13.39c.63,.83,4.01-1.14,4.01-1.14,0,0,.62,1.85,1.18,1.97,1.04,.23,3.53-2.39,3.53-2.39,0,0,2.06,2.53,3.01,2.39,.72-.11,1.66-2.39,1.66-2.39,0,0,3.05,2.01,3.63,1.25,2.39-3.16-9-13.07-9-13.07Z" style="opacity:.3;"></path></g><g><polygon points="69.87 174.08 68.76 207.98 71.69 207.98 70.58 174.08 69.87 174.08" style="fill:#263238;"></polygon><path d="M69.91,181.49s-16.12,15.97-12.44,20.78c.99,1.28,6.22-1.77,6.22-1.77,0,0,.96,2.87,1.83,3.06,1.61,.36,5.48-3.71,5.48-3.71,0,0,3.2,3.92,4.67,3.71,1.12-.16,2.58-3.71,2.58-3.71,0,0,4.74,3.12,5.64,1.93,3.72-4.92-13.97-20.29-13.97-20.29Z" style="fill:#01B3EF;"></path><path d="M70.01,172.92s-14,13.87-10.8,18.04c.85,1.11,5.4-1.54,5.4-1.54,0,0,.84,2.49,1.59,2.66,1.4,.31,4.75-3.22,4.75-3.22,0,0,2.78,3.41,4.06,3.22,.97-.14,2.24-3.22,2.24-3.22,0,0,4.12,2.71,4.9,1.68,3.23-4.26-12.14-17.62-12.14-17.62Z" style="fill:#01B3EF;"></path><path d="M70.12,166.77s-11.41,11.3-8.8,14.7c.7,.91,4.4-1.26,4.4-1.26,0,0,.68,2.03,1.3,2.17,1.14,.25,3.87-2.62,3.87-2.62,0,0,2.26,2.78,3.31,2.62,.79-.12,1.82-2.62,1.82-2.62,0,0,3.35,2.21,3.99,1.36,2.64-3.47-9.89-14.36-9.89-14.36Z" style="fill:#01B3EF;"></path><path d="M72.06,162.98c-.99-.95-2.56-.92-3.51,.07-.02,.02-.03,.03-.05,.05-2.59,2.84-7.03,8.22-5.49,10.23,.57,.74,3.61-1.03,3.61-1.03,0,0,.55,1.66,1.06,1.77,.94,.21,3.17-2.15,3.17-2.15,0,0,1.86,2.27,2.71,2.15,.65-.1,1.49-2.15,1.49-2.15,0,0,2.75,1.81,3.27,1.12,1.56-2.07-3.42-7.34-6.27-10.07Z" style="fill:#01B3EF;"></path></g></g><g><g><path d="M426.29,183.1c-.57-.55-1.48-.53-2.03,.04l-.03,.03c-1.5,1.64-4.07,4.76-3.18,5.92,.33,.43,2.09-.59,2.09-.59,0,0,.32,.96,.61,1.03,.54,.12,1.84-1.24,1.84-1.24,0,0,1.07,1.31,1.57,1.24,.37-.06,.86-1.24,.86-1.24,0,0,1.59,1.05,1.89,.65,.9-1.2-1.98-4.25-3.63-5.83Z" style="fill:#01B3EF;"></path><path d="M426.29,183.1c-.57-.55-1.48-.53-2.03,.04l-.03,.03c-1.5,1.64-4.07,4.76-3.18,5.92,.33,.43,2.09-.59,2.09-.59,0,0,.32,.96,.61,1.03,.54,.12,1.84-1.24,1.84-1.24,0,0,1.07,1.31,1.57,1.24,.37-.06,.86-1.24,.86-1.24,0,0,1.59,1.05,1.89,.65,.9-1.2-1.98-4.25-3.63-5.83Z" style="opacity:.3;"></path><polygon points="425.02 189.52 424.37 209.13 426.07 209.13 425.43 189.52 425.02 189.52" style="fill:#263238;"></polygon><path d="M425.04,193.81s-9.33,9.24-7.2,12.02c.57,.74,3.6-1.03,3.6-1.03,0,0,.56,1.66,1.06,1.77,.93,.21,3.17-2.14,3.17-2.14,0,0,1.85,2.27,2.7,2.14,.65-.09,1.49-2.14,1.49-2.14,0,0,2.74,1.8,3.26,1.12,2.15-2.84-8.08-11.74-8.08-11.74Z" style="fill:#01B3EF;"></path><path d="M425.04,193.81s-9.33,9.24-7.2,12.02c.57,.74,3.6-1.03,3.6-1.03,0,0,.56,1.66,1.06,1.77,.93,.21,3.17-2.14,3.17-2.14,0,0,1.85,2.27,2.7,2.14,.65-.09,1.49-2.14,1.49-2.14,0,0,2.74,1.8,3.26,1.12,2.15-2.84-8.08-11.74-8.08-11.74Z" style="opacity:.3;"></path><path d="M425.17,185.29s-6.6,6.54-5.09,8.51c.4,.52,2.55-.73,2.55-.73,0,0,.39,1.17,.75,1.25,.66,.15,2.24-1.52,2.24-1.52,0,0,1.31,1.61,1.91,1.52,.46-.07,1.05-1.52,1.05-1.52,0,0,1.94,1.28,2.31,.79,1.52-2.01-5.72-8.31-5.72-8.31Z" style="fill:#01B3EF;"></path><path d="M425.17,185.29s-6.6,6.54-5.09,8.51c.4,.52,2.55-.73,2.55-.73,0,0,.39,1.17,.75,1.25,.66,.15,2.24-1.52,2.24-1.52,0,0,1.31,1.61,1.91,1.52,.46-.07,1.05-1.52,1.05-1.52,0,0,1.94,1.28,2.31,.79,1.52-2.01-5.72-8.31-5.72-8.31Z" style="opacity:.3;"></path><path d="M425.1,188.85s-8.1,8.02-6.25,10.44c.49,.64,3.13-.89,3.13-.89,0,0,.48,1.44,.92,1.54,.81,.18,2.75-1.86,2.75-1.86,0,0,1.61,1.97,2.35,1.86,.56-.08,1.29-1.86,1.29-1.86,0,0,2.38,1.57,2.83,.97,1.87-2.47-7.02-10.2-7.02-10.2Z" style="fill:#01B3EF;"></path><path d="M425.1,188.85s-8.1,8.02-6.25,10.44c.49,.64,3.13-.89,3.13-.89,0,0,.48,1.44,.92,1.54,.81,.18,2.75-1.86,2.75-1.86,0,0,1.61,1.97,2.35,1.86,.56-.08,1.29-1.86,1.29-1.86,0,0,2.38,1.57,2.83,.97,1.87-2.47-7.02-10.2-7.02-10.2Z" style="opacity:.3;"></path></g><g><path d="M449.73,183.1c-.57-.55-1.48-.53-2.03,.04l-.03,.03c-1.5,1.64-4.07,4.76-3.18,5.92,.33,.43,2.09-.59,2.09-.59,0,0,.32,.96,.61,1.03,.54,.12,1.84-1.24,1.84-1.24,0,0,1.07,1.31,1.57,1.24,.37-.06,.86-1.24,.86-1.24,0,0,1.59,1.05,1.89,.65,.9-1.2-1.98-4.25-3.63-5.83Z" style="fill:#01B3EF;"></path><path d="M449.73,183.1c-.57-.55-1.48-.53-2.03,.04l-.03,.03c-1.5,1.64-4.07,4.76-3.18,5.92,.33,.43,2.09-.59,2.09-.59,0,0,.32,.96,.61,1.03,.54,.12,1.84-1.24,1.84-1.24,0,0,1.07,1.31,1.57,1.24,.37-.06,.86-1.24,.86-1.24,0,0,1.59,1.05,1.89,.65,.9-1.2-1.98-4.25-3.63-5.83Z" style="opacity:.3;"></path><polygon points="448.47 189.52 447.82 209.13 449.52 209.13 448.87 189.52 448.47 189.52" style="fill:#263238;"></polygon><path d="M448.49,193.81s-9.33,9.24-7.2,12.02c.57,.74,3.6-1.03,3.6-1.03,0,0,.56,1.66,1.06,1.77,.93,.21,3.17-2.14,3.17-2.14,0,0,1.85,2.27,2.7,2.14,.65-.09,1.49-2.14,1.49-2.14,0,0,2.74,1.8,3.26,1.12,2.15-2.84-8.08-11.74-8.08-11.74Z" style="fill:#01B3EF;"></path><path d="M448.49,193.81s-9.33,9.24-7.2,12.02c.57,.74,3.6-1.03,3.6-1.03,0,0,.56,1.66,1.06,1.77,.93,.21,3.17-2.14,3.17-2.14,0,0,1.85,2.27,2.7,2.14,.65-.09,1.49-2.14,1.49-2.14,0,0,2.74,1.8,3.26,1.12,2.15-2.84-8.08-11.74-8.08-11.74Z" style="opacity:.3;"></path><path d="M448.61,185.29s-6.6,6.54-5.09,8.51c.4,.52,2.55-.73,2.55-.73,0,0,.39,1.17,.75,1.25,.66,.15,2.24-1.52,2.24-1.52,0,0,1.31,1.61,1.91,1.52,.46-.07,1.05-1.52,1.05-1.52,0,0,1.94,1.28,2.31,.79,1.52-2.01-5.72-8.31-5.72-8.31Z" style="fill:#01B3EF;"></path><path d="M448.61,185.29s-6.6,6.54-5.09,8.51c.4,.52,2.55-.73,2.55-.73,0,0,.39,1.17,.75,1.25,.66,.15,2.24-1.52,2.24-1.52,0,0,1.31,1.61,1.91,1.52,.46-.07,1.05-1.52,1.05-1.52,0,0,1.94,1.28,2.31,.79,1.52-2.01-5.72-8.31-5.72-8.31Z" style="opacity:.3;"></path><path d="M448.54,188.85s-8.1,8.02-6.25,10.44c.49,.64,3.13-.89,3.13-.89,0,0,.48,1.44,.92,1.54,.81,.18,2.75-1.86,2.75-1.86,0,0,1.61,1.97,2.35,1.86,.56-.08,1.29-1.86,1.29-1.86,0,0,2.38,1.57,2.83,.97,1.87-2.47-7.02-10.2-7.02-10.2Z" style="fill:#01B3EF;"></path><path d="M448.54,188.85s-8.1,8.02-6.25,10.44c.49,.64,3.13-.89,3.13-.89,0,0,.48,1.44,.92,1.54,.81,.18,2.75-1.86,2.75-1.86,0,0,1.61,1.97,2.35,1.86,.56-.08,1.29-1.86,1.29-1.86,0,0,2.38,1.57,2.83,.97,1.87-2.47-7.02-10.2-7.02-10.2Z" style="opacity:.3;"></path></g><g><polygon points="437.97 182.7 437.1 209.13 439.39 209.13 438.52 182.7 437.97 182.7" style="fill:#263238;"></polygon><path d="M438,188.48s-12.57,12.45-9.7,16.2c.77,1,4.85-1.38,4.85-1.38,0,0,.75,2.24,1.43,2.39,1.26,.28,4.27-2.89,4.27-2.89,0,0,2.49,3.06,3.64,2.89,.87-.13,2.01-2.89,2.01-2.89,0,0,3.69,2.43,4.4,1.51,2.9-3.83-10.89-15.83-10.89-15.83Z" style="fill:#01B3EF;"></path><path d="M438.08,181.8s-10.92,10.82-8.42,14.07c.67,.87,4.21-1.2,4.21-1.2,0,0,.65,1.94,1.24,2.07,1.09,.24,3.71-2.51,3.71-2.51,0,0,2.16,2.66,3.16,2.51,.76-.11,1.74-2.51,1.74-2.51,0,0,3.21,2.11,3.82,1.31,2.52-3.32-9.46-13.74-9.46-13.74Z" style="fill:#01B3EF;"></path><path d="M438.17,177s-8.9,8.81-6.86,11.47c.54,.71,3.43-.98,3.43-.98,0,0,.53,1.58,1.01,1.69,.89,.2,3.02-2.04,3.02-2.04,0,0,1.76,2.16,2.58,2.04,.61-.09,1.42-2.04,1.42-2.04,0,0,2.61,1.72,3.11,1.06,2.06-2.7-7.71-11.19-7.71-11.19Z" style="fill:#01B3EF;"></path><path d="M439.68,174.05c-.77-.74-2-.72-2.74,.05l-.04,.04c-2.02,2.22-5.48,6.41-4.28,7.98,.44,.58,2.81-.8,2.81-.8,0,0,.43,1.3,.83,1.38,.73,.16,2.47-1.67,2.47-1.67,0,0,1.45,1.77,2.11,1.67,.5-.07,1.16-1.67,1.16-1.67,0,0,2.14,1.41,2.55,.87,1.22-1.61-2.67-5.72-4.89-7.85Z" style="fill:#01B3EF;"></path></g></g></g><g id="freepik--Plants--inject-84"><g><path d="M430.47,447.06c-.66-1.11-2.13-2.47-3.16-3.25-1.03-.78-2.44-1.16-3.63-.67-1.52,.62-2.23,2.49-2.01,4.12,.21,1.63,.99,3.69,1.92,5.05,3.96,5.8,7.63,11.11,13.74,15.42,0-7.2-3.2-14.54-6.85-20.68Z" style="fill:#01B3EF;"></path><path d="M450.64,448.06c-1.37-.75-3.91,.31-5.16,1.25-2.47,1.85-3.98,3.8-5.49,6.5-1.92,3.43-2.14,8.24-2.38,11.3,4.84-3.93,9.77-7.96,13.09-13.24,.58-.92,1.12-1.91,1.22-2.99,.1-1.08-.32-2.28-1.28-2.8Z" style="fill:#01B3EF;"></path><path d="M438.05,470.77c-.12,0-.22-.08-.24-.2-1.15-5.31-3.18-10.34-6.04-14.95-.07-.12-.04-.27,.08-.34,.12-.07,.27-.04,.34,.08,2.89,4.66,4.94,9.74,6.11,15.1,.03,.13-.06,.27-.19,.3-.02,0-.04,0-.05,0Z" style="fill:#263238;"></path><path d="M437.41,467.81s-.06,0-.08-.01c-.13-.05-.2-.19-.15-.32,1.3-3.58,3.19-6.87,5.63-9.8,.09-.11,.25-.12,.35-.03,.11,.09,.12,.25,.03,.35-2.4,2.88-4.26,6.12-5.54,9.65-.04,.1-.13,.17-.24,.17Z" style="fill:#263238;"></path></g><g><path d="M64.88,444.74c-.66-1.11-2.13-2.47-3.16-3.25-1.03-.78-2.44-1.16-3.64-.67-1.52,.62-2.23,2.49-2.01,4.12,.21,1.63,.99,3.69,1.92,5.05,3.96,5.8,7.63,11.11,13.74,15.42,0-7.2-3.2-14.54-6.85-20.68Z" style="fill:#01B3EF;"></path><path d="M85.04,445.74c-1.37-.75-3.91,.31-5.16,1.25-2.47,1.85-3.98,3.8-5.49,6.5-1.92,3.43-2.14,8.24-2.38,11.3,4.84-3.93,9.77-7.96,13.09-13.24,.58-.92,1.12-1.91,1.22-3,.1-1.08-.32-2.28-1.28-2.8Z" style="fill:#01B3EF;"></path><path d="M72.45,468.45c-.12,0-.22-.08-.24-.2-1.15-5.3-3.18-10.33-6.04-14.95-.07-.12-.04-.27,.08-.34,.12-.07,.27-.04,.34,.08,2.89,4.66,4.95,9.74,6.11,15.1,.03,.13-.06,.27-.19,.3-.02,0-.04,0-.05,0Z" style="fill:#263238;"></path><path d="M71.82,465.5s-.06,0-.09-.01c-.13-.05-.2-.19-.15-.32,1.3-3.58,3.19-6.87,5.63-9.8,.09-.11,.25-.12,.35-.03,.11,.09,.12,.25,.03,.35-2.4,2.88-4.27,6.12-5.54,9.65-.04,.1-.13,.17-.23,.17Z" style="fill:#263238;"></path></g></g><g id="freepik--Character_3--inject-84"><g><path d="M381.82,265.61c2.45-19.86,2.65-40.11,.6-60.03l14.44-2.24c4.95-3.16,11.45-.66,15.26,4.22,3.81,4.88,5.43,11.56,6.42,18.08,1.47,9.74,1.78,19.73,.88,29.57-.38,4.14-1,8.37-2.88,11.9-2.68,5.04-7.6,7.95-12.58,8.97-4.98,1.02-10.08,.38-15.1-.26-2.43-.31-5.18-.84-6.51-3.25-1.1-2-.82-4.59-.53-6.95Z" style="fill:#263238;"></path><g><polygon points="374.17 449.03 364.85 451.46 354.06 428.6 368.21 424.75 374.17 449.03" style="fill:#ebb373;"></polygon><g><path d="M362.82,447.49l3.38-.54c.76-.12,1.53,.15,2.08,.7,2.37,2.35,3.68,1.11,5.4-1.72,1.32-.37,1.93,1.12,2.11,1.52l3.98,8.79c.34,.73,.02,1.6-.71,1.94-.13,.06-.27,.1-.41,.12-4.1,.65-6.05,.96-11.16,1.77l-15.62,2.48c-4.26,.67-5.82-3.48-4.13-4.15,7.61-2.99,12.83-6.2,14.91-8.88,.39-.47-.12-.7,.17-2.02Z" style="fill:#263238;"></path><path d="M358.28,451.42c1.06-.19,2.1-.5,3.1-.91,.09-.05,.13-.17,.08-.26-.03-.05-.08-.08-.13-.1-.51-.16-5.05-1.46-5.99-.54-.18,.16-.25,.41-.18,.64,.07,.44,.35,.81,.75,1.01,.76,.3,1.59,.36,2.38,.15Zm2.4-1.06c-1.21,.43-3.48,1.11-4.55,.54-.28-.16-.48-.43-.55-.74-.04-.1,0-.2,.07-.27,.52-.5,3.15-.02,5.03,.47Z" style="fill:#01B3EF;"></path><path d="M361.33,450.53s.09,0,.13-.02c.05-.06,.06-.14,.02-.21-.03-.18-1.68-4.18-3.96-3.55-.56,.17-.68,.47-.67,.71,.03,1.13,3.02,2.79,4.37,3.12l.09-.05Zm-3.52-3.48c1.47-.23,2.7,2.06,3.14,2.99-1.49-.51-3.7-1.94-3.69-2.63,0-.06-.03-.21,.39-.32l.15-.04Z" style="fill:#01B3EF;"></path><path d="M364.05,452.12c-.07,0-.14-.03-.19-.08-.72-.82-1.8-1.31-2.89-1.31-.03,0-.03,0-.08,0-.14,0-.25-.11-.25-.25,0-.14,.11-.25,.25-.25,.03,0,.06,0,.09,0,1.24,0,2.45,.55,3.27,1.48,.09,.1,.08,.26-.02,.35-.05,.04-.11,.06-.17,.06Z" style="fill:#01B3EF;"></path><path d="M362.2,454.03c-.07,0-.14-.03-.19-.08-.74-.84-1.85-1.36-2.97-1.31h0c-.14,0-.25-.11-.25-.25,0-.14,.11-.25,.25-.25,.03,0,.06,0,.09,0,1.24,0,2.45,.55,3.27,1.48,.09,.1,.08,.26-.02,.35-.05,.04-.11,.06-.17,.06Z" style="fill:#01B3EF;"></path><path d="M359.8,455.78c-.07,0-.14-.03-.19-.08-.74-.84-1.86-1.36-2.97-1.31h0c-.14,0-.25-.11-.25-.25,0-.14,.11-.25,.25-.25,.03,0,.06,0,.09,0,1.24,0,2.45,.55,3.27,1.48,.09,.1,.08,.26-.02,.35-.05,.04-.11,.06-.17,.06Z" style="fill:#01B3EF;"></path></g><polygon points="359.76 440.68 361.09 443.48 371.96 440.01 371.37 437.63 359.76 440.68" style="opacity:.3;"></polygon></g><g><polygon points="377.19 461.37 367.78 459.34 368.44 434.07 382.81 437.01 377.19 461.37" style="fill:#ebb373;"></polygon><g><path d="M366.81,456.1h3.42c.77,0,1.49,.39,1.95,1.02,1.97,2.7,3.46,1.68,5.6-.86,1.36-.16,1.73,1.41,1.84,1.83l2.56,9.31c.22,.78-.23,1.59-1,1.81-.14,.04-.28,.06-.43,.06h-27.11c-4.31,0-5.21-4.35-3.43-4.75,7.99-1.77,13.64-4.12,16.11-6.44,.46-.41-.01-.71,.49-1.97Z" style="fill:#263238;"></path><path d="M361.71,459.28c1.08-.03,2.15-.16,3.21-.41,.1-.04,.15-.14,.11-.24-.02-.05-.06-.1-.11-.11-.48-.23-4.76-2.23-5.83-1.47-.2,.13-.31,.37-.28,.6,0,.44,.22,.86,.58,1.12,.7,.42,1.51,.6,2.32,.53Zm2.54-.67c-1.26,.23-3.61,.55-4.58-.18-.25-.2-.41-.5-.42-.82-.02-.1,.02-.2,.11-.26,.59-.41,3.12,.47,4.89,1.25Z" style="fill:#01B3EF;"></path><path d="M364.87,458.87s.09,.01,.13,0c.06-.05,.08-.13,.06-.2,0-.18-1.01-4.39-3.35-4.12-.58,.08-.75,.36-.77,.59-.15,1.12,2.55,3.23,3.83,3.76l.1-.03Zm-2.93-3.99c1.49,0,2.35,2.46,2.64,3.44-1.4-.74-3.35-2.49-3.23-3.17,0-.06,0-.21,.44-.26h.16Z" style="fill:#01B3EF;"></path><path d="M367.34,460.87c-.08,0-.16-.04-.21-.12-.6-.95-1.62-1.61-2.73-1.76-.14-.02-.23-.15-.21-.28,.02-.14,.14-.23,.28-.21,1.26,.17,2.41,.92,3.08,1.99,.07,.12,.04,.27-.08,.34-.04,.03-.09,.04-.13,.04Z" style="fill:#01B3EF;"></path><path d="M365.22,462.47c-.08,0-.16-.04-.21-.12-.6-.95-1.62-1.61-2.73-1.76-.14-.02-.23-.15-.21-.28,.02-.14,.14-.22,.28-.21,1.25,.17,2.41,.91,3.08,1.99,.07,.12,.04,.27-.08,.35-.04,.03-.09,.04-.13,.04Z" style="fill:#01B3EF;"></path><path d="M362.57,463.81c-.08,0-.16-.04-.21-.12-.6-.95-1.62-1.61-2.73-1.76-.14-.02-.23-.15-.21-.28,.02-.14,.14-.22,.28-.21,1.26,.17,2.41,.92,3.08,1.99,.07,.12,.04,.27-.08,.34-.04,.03-.09,.04-.13,.04Z" style="fill:#01B3EF;"></path></g></g><g><g><path d="M327.04,368.02c3.85,7.58,7.71,15.74,11.38,23.89,4.84,10.76,9.36,21.52,13.18,31.14,2.74,6.87,6.31,15.54,8.16,20.77,6.5-.39,9.62-2.47,12.26-4.18-1.15-9.35-4.26-33.6-11.18-55.1-3.64-11.31-8.29-22.5-14.23-31.69,32.44-67.27,29.08-96.19,29.08-96.19l-32.49-.58s-6.74,25.39-12.6,51.51h0c-3.06,13.7-5.86,27.58-7.33,38.11v.11c-1.06,7.58,.23,15.26,3.76,22.21Z" style="fill:#01B3EF;"></path><path d="M327.04,368.02c3.85,7.58,7.71,15.74,11.38,23.89,4.84,10.76,9.36,21.52,13.18,31.14,2.74,6.87,6.31,15.54,8.16,20.77,6.5-.39,9.62-2.47,12.26-4.18-1.15-9.35-4.26-33.6-11.18-55.1-3.64-11.31-8.29-22.5-14.23-31.69,32.44-67.27,29.08-96.19,29.08-96.19l-32.49-.58s-6.74,25.39-12.6,51.51h0c-3.06,13.7-5.86,27.58-7.33,38.11v.11c-1.06,7.58,.23,15.26,3.76,22.21Z" style="opacity:.3;"></path><path d="M355.75,332.82c4.88-11.47,8.54-21.45,11.24-30.03-1.47-6.94-3.86-12.95-7.45-16.69,0,0-7.05,18.62-3.78,46.72Z" style="opacity:.2;"></path><path d="M351.6,423.05c2.74,6.87,6.31,15.54,8.16,20.77,6.5-.39,9.62-2.47,12.26-4.18-1.15-9.35-4.26-33.6-11.18-55.1-3.18,11.28-6.87,25.55-9.24,38.51Z" style="opacity:.2;"></path></g><path d="M355.39,256.09s7,61.4,10.94,92.08c4.13,32.23,2.64,83.66,.38,104.57,1.96,1.11,9.2,2.62,13.19,1.65,0,0,21.4-64.16,10.62-102.22,17.54-75.37-3.26-96.08-3.26-96.08h-31.87Z" style="fill:#01B3EF;"></path><g style="opacity:.3;"><path d="M355.39,256.09s7,61.4,10.94,92.08c4.13,32.23,2.64,83.66,.38,104.57,1.96,1.11,9.2,2.62,13.19,1.65,0,0,21.4-64.16,10.62-102.22,17.54-75.37-3.26-96.08-3.26-96.08h-31.87Z"></path></g></g><path d="M388.39,216.15c4.74-12.43,7.12-18.99,4.31-27.6-2.81-8.61,8.06-52.06-24.25-53.05-7.09-.21-18.18-.14-19.97,22.45-1.79,22.59-13.18,16.03-8.92,29.03,4.26,13-17.93,20.9-11.64,35.52,6.29,14.62-13.3,18.7-8.57,26.37,2.72-.48,5.46-.8,8.22-.95-.33-1.24-.23-3.24,1.83-6.13,3.8-5.34,9.44-11.53,6.66-19.45,0,0,5.63,3.67-.72,16.49-2.08,4.21-2.73,7-2.67,8.85,2.37,0,4.96,.11,7.66,.36-.47-1.65-.44-3.41,.1-5.05,1.62-4.86,4.29-6.32,5.06-10.36,0,0,.79,6.33-1.27,9.56-1.16,1.85-1.45,4.12-.81,6.21,7.03,.87,13.78,3.24,19.82,6.95,18.14,11.65,28.14-3.98,28.14-3.98,0,0-7.68-22.81-2.99-35.23Z" style="fill:#263238;"></path><g><g><path d="M347.31,190.75c-8.72,9.61-13.15,20.09-13.15,20.09l21.05,5.04s5.24-13.83,3.12-18.89c-2.21-5.27-5.64-10.35-11.02-6.23Z" style="fill:#01B3EF;"></path><g style="opacity:.3;"><path d="M346.13,199.73c-1.08,1.84-1.45,2.89-2.12,5.01-.68,2.12-1.29,6.09-1.46,8.08l3.89,.94c-.14-4.87-.16-9.17-.3-14.04Z"></path></g><path d="M344.33,243.42c1.06-6.49,1.48-26.15,1.11-29.94-1.36-13.75,.9-20.43,.9-20.43,1.29-3.01,4.23-4.44,9.66-6.21,4.07-1.33,8.82-2.39,8.82-2.39l12.36-.68s14.34,4.83,20.5,8.26l-3.94,22.18c-.55,1.27-6.77,18.68-7.09,19.99-1.64,6.78,4.71,23.95,4.38,27.82l-50.37,1.27,3.69-19.89Z" style="fill:#01B3EF;"></path><path d="M397.05,191.77c4.74,1.6,9.85,17.03,9.85,17.03l-19.69,9.7s-2.78-13.06-1.31-19.33c1.26-5.29,5.14-9.44,11.16-7.4Z" style="fill:#01B3EF;"></path></g><path d="M393.55,190.04s-8.49,11.8-8.18,20.52c.31,8.72,7.55,33.64,7.55,33.64l-3.55,3.89s-10.4-26.35-10.09-35.98c.31-9.63,8.76-24.36,8.76-24.36,0,0,2.39-.98,5.5,2.28Z" style="fill:#263238;"></path><path d="M356.8,186.6s-11.91,12.63-12.19,34.72c0,0-2.81-25,6.09-32.43,0,0,3.28-3.55,6.09-2.3Z" style="fill:#263238;"></path></g><path d="M388.83,251.25s-4.85-.64-4.67-.47c.18,.17-.23,13.93-.23,13.93l-38.75,.15,.24-2.5,18.05-16.93,7.43-3.46,17.24,6.52,.68,2.77Z" style="opacity:.3;"></path><g><rect x="344.19" y="209.6" width="38.58" height="53.27" transform="translate(726.96 472.46) rotate(180)" style="fill:#263238;"></rect><rect x="344.19" y="209.6" width="38.58" height="53.27" transform="translate(726.96 472.46) rotate(180)" style="fill:#fff; opacity:.3;"></rect></g><path d="M346.51,219.05h25.89c1.36,0,2.47,1.11,2.47,2.47v37.29h-28.36c-1.36,0-2.47-1.11-2.47-2.47v-34.82c0-1.36,1.11-2.47,2.47-2.47Z" transform="translate(718.91 477.86) rotate(180)" style="fill:#263238;"></path><g><path d="M403.91,210.08c.41-.27,2.66,30.79-1.41,35.5-2.17,2.51-5.07,4.25-7.32,4.27-11.55,.13-37.72-7.25-37.26-7.25,.55,0,1.65-9.23,1.65-9.23l29.82,1.9-1.1-17.41,15.63-7.78Z" style="fill:#ebb373;"></path><g><path d="M363.5,235.53s-.52-3.61-2.96-5.4c-2.44-1.78-3.91-3.85-5.81-5.05-1.9-1.2-1.02,1.7-.23,3.15,.78,1.45,1.66,3.1,.47,3.51-1.18,.41-11.78-1.57-13.36-.81-1.58,.76,.04,1.62,.04,1.62,0,0-2.59-.41-3.03,.57-.11,.25,.03,1.03,1.18,1.41,2.59,.84,8.1,2.32,8.1,2.32-.32-.09-7.26-1.43-8.32-1.5-1.39-.09-2.09,.58-2.12,1.39-.03,1.15,8.52,3.11,8.82,3.45,0,0-4.88-1.29-5.91-.21-1.02,1.08,2.01,2.06,4.84,2.42,2.6,.33,7.62,1.65,10.29,1.73,3.3,.09,5.53-.58,6.89-3.36,1.36-2.78,1.1-5.23,1.1-5.23Z" style="fill:#ebb373;"></path><path d="M348.14,234.1s-.02,0-.03,0c-2.01-.57-4.07-1.05-6.12-1.43-.07-.01-.11-.08-.1-.15s.08-.11,.15-.1c2.06,.38,4.13,.86,6.15,1.43,.07,.02,.1,.09,.09,.15-.02,.06-.07,.09-.12,.09Z" style="opacity:.3;"></path></g><path d="M373.86,246.69c-.54-.12-5.09-2.8-4.7-3.54s5.97-2.96,4.7-4.39-6.53-1.25-9.85-.51c-3.32,.74-20.68-7.49-20.82-7.49-.14,0-4.2,.47-3.56,.7,.65,.23,29.53,14.13,29.53,14.13l4.7,1.09Z" style="opacity:.3;"></path></g><g><g><path d="M358.08,243.13s2.32-2.82,5.33-3.07c3.01-.25,5.34-1.26,7.59-1.29,2.25-.03-.02,1.99-1.44,2.82-1.42,.83-3.03,1.79-2.23,2.75,.8,.97,10.88,4.79,11.83,6.26,.95,1.47-.87,1.36-.87,1.36,0,0,2.42,.99,2.29,2.06-.03,.28-.56,.87-1.74,.59-2.65-.63-8.13-2.23-8.13-2.23,.32,.09,6.94,2.55,7.89,3.05,1.23,.65,1.48,1.59,1.08,2.29-.57,1-8.89-1.78-9.33-1.65,0,0,4.84,1.44,5.16,2.89,.31,1.45-2.79,.71-5.39-.46-2.39-1.07-7.36-2.55-9.69-3.88-2.86-1.63-4.42-3.38-4.14-6.46,.28-3.08,1.78-5.03,1.78-5.03Z" style="fill:#ebb373;"></path><path d="M378,251.88s-.03,0-.04,0c-1.95-.74-3.96-1.4-5.97-1.97-.07-.02-.11-.09-.09-.15s.09-.11,.15-.09c2.02,.57,4.04,1.23,5.99,1.97,.06,.03,.1,.1,.07,.16-.02,.05-.07,.08-.12,.08Z" style="opacity:.3;"></path></g><path d="M335.59,211.18s-14.86,23.75-11.34,27.89,34.58,12.69,34.58,12.69l3.83-9.53-22.74-12.49,4.26-8.42v-8.09l-8.6-2.06Z" style="fill:#ebb373;"></path></g><rect x="345.07" y="219.8" width="28.55" height="2.08" rx="1.03" ry="1.03" transform="translate(718.69 441.68) rotate(-180)" style="fill:#fff;"></rect><path d="M381.4,210.37c-.48,.04-36.67,0-36.67,0v.81h36.67v-.81Z" style="fill:#fff;"></path><g><path d="M363.65,184.38c1.37-1.35,1.66-2.42,1.41-4.39-.17-1.52-.65-3.1-1.23-4.64l2.04-2.19,10.6-9.84c-.54,6.84-2,17.41,3.2,21.35,0,0-12.8,9.26-13.5,9.35-.69,.1-2.53-9.63-2.53-9.63Z" style="fill:#ebb373;"></path><path d="M365.04,180.86c2.91-.67,7.11-2.59,7.82-5.91,.3-1.37,.33-2.72,.26-3.62l-8.69,5.39c.1,1.3,.81,2.28,.61,4.14Z" style="opacity:.2;"></path><path d="M380.75,152.45c-1.44,10.41-1.83,14.83-7.47,20.06-8.49,7.87-20.84,4.52-22.51-5.94-1.5-9.41,1.1-24.85,11.56-28.76,10.31-3.86,19.86,4.24,18.42,14.64Z" style="fill:#ebb373;"></path><path d="M367.42,155.98c-.02,.98-.59,1.81-1.28,1.85-.69,.04-1.23-.72-1.21-1.7,.02-.98,.59-1.81,1.28-1.85,.69-.04,1.23,.72,1.21,1.7Z" style="fill:#263238;"></path><path d="M369.05,152.83c-.13,0-.27-.04-.36-.14-1.53-1.58-3.37-1.16-3.39-1.15-.27,.06-.54-.1-.58-.38-.05-.28,.14-.56,.42-.62,.1-.02,2.41-.55,4.3,1.41,.19,.2,.17,.52-.03,.73-.1,.1-.23,.15-.35,.16Z" style="fill:#263238;"></path><path d="M354.08,150.89c-.12-.04-.22-.12-.28-.24-.12-.25,0-.54,.27-.67,2.65-1.25,4.7-.12,4.78-.07,.24,.14,.31,.44,.15,.68-.16,.24-.48,.32-.72,.18-.08-.05-1.68-.89-3.79,.1-.14,.06-.28,.07-.41,.03Z" style="fill:#263238;"></path><path d="M359.59,154.34s-1.82,3.84-3.77,6.19c-.34,.41-.17,1.04,.32,1.25,1.27,.53,2.8,.17,2.8,.17l.65-7.61Z" style="fill:#d58745;"></path><path d="M366.64,154.29l-2.42-.48s1.71,1.74,2.42,.48Z" style="fill:#263238;"></path><path d="M357.34,155.31c-.02,.98-.59,1.81-1.28,1.85-.69,.04-1.23-.72-1.21-1.7,.02-.98,.59-1.81,1.28-1.85,.69-.04,1.23,.72,1.21,1.7Z" style="fill:#263238;"></path><path d="M356.42,153.61l-2.42-.48s1.71,1.74,2.42,.48Z" style="fill:#263238;"></path><path d="M360.96,166.72c-.12,0-.24,0-.36-.01-.14,0-.24-.13-.23-.27s.13-.25,.27-.23c1.82,.13,3.66-.85,4.57-2.43,.07-.12,.22-.16,.34-.09,.12,.07,.16,.22,.09,.34-.95,1.64-2.79,2.69-4.68,2.69Z" style="fill:#263238;"></path><path d="M362.64,147.96c5.68,1.17,9.61,6.34,9.61,6.34-.97-3.23,2.98-6.44,2.98-6.44-2.27,13.4,3.73,11.34,3.73,11.34l2.57-1s3.56-20.55-11.76-21.73c-15.32-1.17-19.33,16.31-19.33,16.31,1.32-1.47,2.9-2.72,4.67-3.69,.8-2.88,3-5.34,5.92-6.64-2.01,1.43-3.38,3.5-3.83,5.76,1.08-.34,2.2-.51,3.32-.51,.26-1.99,1.11-3.91,2.44-5.56-.66,1.91-.77,3.92-.34,5.81Z" style="fill:#263238;"></path><path d="M374.9,136.94c3.1,1.51,5.38,3.4,6.83,6.53,1.44,3.13,2.21,8.43,.79,11.58l-4.45,.2c.49-1.17,.62-2.55,.71-3.61,.15-1.96,.3-3.95-.15-5.86-.68-2.85-2.68-5.27-5.11-6.91-2.43-1.64-4.52-2.72-7.37-3.4,3.43,.07,5.65-.03,8.75,1.47Z" style="fill:#01B3EF;"></path><path d="M383.52,161.11c-1.33,2.09-3.4,3.34-5.26,3.72-2.8,.57-4.02-3.95-2.95-6.67,.97-2.46,3.76-3.98,6.43-3.31,2.63,.66,3.31,3.89,1.78,6.27Z" style="fill:#ebb373;"></path><path d="M378.92,162.24c-.11,0-.22-.08-.24-.19-.03-.13,.05-.27,.19-.3,1.51-.34,2.2-1.11,2.5-1.69,.34-.64,.32-1.23,.2-1.54-.24-.63-1.03-1.13-1.77-.85-.13,.05-.27-.02-.32-.15-.05-.13,.02-.27,.15-.32,1.03-.38,2.08,.28,2.41,1.14,.17,.43,.19,1.16-.23,1.95-.36,.67-1.14,1.56-2.83,1.94-.02,0-.04,0-.06,0Z" style="opacity:.2;"></path></g></g></g><g id="freepik--Character_2--inject-84"><g><g><polygon points="267.31 437 270.81 462.65 279.16 463.07 281.87 438.35 267.31 437" style="fill:#263238;"></polygon><path d="M286.28,474.56h-18.7s-.41-.79,.06-2.88c.07-.33,.16-.68,.28-1.07,0-.02,.01-.04,.02-.06,.17-.58,.38-1.29,.59-2.06,.86-3.13,1.86-7.22,1.86-7.22,0,0,3.11-6.66,6.75-5,3.19,1.46,2.44,5.63,2.44,5.63,0,0,.31,2.45,2.73,4.61,1.5,1.34,2.99,2.37,3.7,4.03,.13,.31,.24,.64,.31,1,0,.04,.02,.09,.02,.13,.15,.8,.14,1.74-.08,2.88Z" style="fill:#263238;"></path><path d="M267.64,471.68c-.47,2.09-.06,2.88-.06,2.88h18.7c.22-1.14,.22-2.08,.08-2.88h-18.72Z" style="fill:#fff; opacity:.3;"></path><path d="M278.83,462.96c-1.05-.82-2.43-.71-3.38,.21-.25,.25-.64-.14-.39-.39,1.18-1.15,2.87-1.22,4.16-.21,.28,.22-.11,.61-.39,.39h0Z" style="fill:#01B3EF;"></path><path d="M279.36,464.7c-1.05-.82-2.43-.71-3.38,.21-.25,.25-.64-.14-.39-.39,1.18-1.15,2.87-1.22,4.16-.21,.28,.22-.11,.61-.39,.39h0Z" style="fill:#01B3EF;"></path><path d="M279.89,466.31c-1.05-.82-2.43-.71-3.38,.21-.25,.25-.64-.14-.39-.39,1.18-1.15,2.87-1.22,4.16-.21,.28,.22-.11,.61-.39,.39h0Z" style="fill:#01B3EF;"></path></g><g><polygon points="232.21 435.4 228.72 461.05 220.36 461.47 217.65 436.74 232.21 435.4" style="fill:#263238;"></polygon><path d="M213.24,472.95h18.7s.41-.79-.06-2.88c-.07-.33-.16-.68-.28-1.07,0-.02-.01-.04-.02-.06-.17-.58-.38-1.29-.59-2.06-.86-3.13-1.86-7.22-1.86-7.22,0,0-3.11-6.66-6.75-5-3.19,1.46-2.44,5.63-2.44,5.63,0,0-.31,2.45-2.73,4.61-1.5,1.34-2.99,2.37-3.7,4.03-.13,.31-.24,.64-.31,1,0,.04-.02,.09-.02,.13-.15,.8-.14,1.74,.08,2.88Z" style="fill:#263238;"></path><path d="M231.88,470.08c.47,2.09,.06,2.88,.06,2.88h-18.7c-.22-1.14-.22-2.08-.08-2.88h18.72Z" style="fill:#fff; opacity:.3;"></path><path d="M220.69,461.35c1.05-.82,2.43-.71,3.38,.21,.25,.25,.64-.14,.39-.39-1.18-1.15-2.87-1.22-4.16-.21-.28,.22,.11,.61,.39,.39h0Z" style="fill:#01B3EF;"></path><path d="M220.17,463.1c1.05-.82,2.43-.71,3.38,.21,.25,.25,.64-.14,.39-.39-1.18-1.15-2.87-1.22-4.16-.21-.28,.22,.11,.61,.39,.39h0Z" style="fill:#01B3EF;"></path><path d="M219.64,464.7c1.05-.82,2.43-.71,3.38,.21,.25,.25,.64-.14,.39-.39-1.18-1.15-2.87-1.22-4.16-.21-.28,.22,.11,.61,.39,.39h0Z" style="fill:#01B3EF;"></path></g><path d="M285.62,268.62l-38.88,2.32-23.79-4.11s-1.61,27.17-3.65,91.72c-.44,14.08-4.16,97.76-4.16,97.76l20.91,2.13s10.39-86.79,11.97-94.37c.95-4.56,4.52-38.79,7.35-55.15,1.37,13.65,2.51,46.58,3.54,55.44,0,0,5.19,71.22,5.93,91.43l19.49-.97c2.4-27.74,3.22-128.77,3.22-128.77h0c1.35-21.16-1.93-57.42-1.93-57.42Z" style="fill:#263238;"></path><g><path d="M275.42,182.98c4.36-1.14,6.99-.35,10.4-3.3,.99-.86,1.18-3.2,1.02-4.5-.34-2.62-3.98-5.27-9.65-5.76-13.02-1.13-14.22-.73-27.27-.03-1.72,.09-7.49,1.32-9.08,1.96-1.6,.64-3.58,2.38-3.93,4.06-.35,1.68,.73,3.67,2.43,3.9l1.57,8.78,34.52-5.12Z" style="fill:#01B3EF;"></path><path d="M238.51,177.2c5.49-.34,25.93-1.31,48.35,3.19l1.15,85.47c.05,7.07-1.08,8.06-1.08,8.06,0,0,.2,4.01,.22,4.14-23.45,9.06-50.45,8.47-65.39-.84,.35,.06,0-2.9,0-2.9,0,0-2.25-2.28-1.48-9.54,2.57-24.23,8.21-63.29,12.21-85.08,.11-.54,5.48-2.46,6.03-2.49Z" style="fill:#01B3EF;"></path><path d="M249.3,280.77c-17.58,0-27.9-6.17-28.01-6.23l.26-.43c.11,.07,11.37,6.8,30.44,6.11,21.11-.75,34.48-6.47,34.62-6.53l.2,.46c-.13,.06-13.58,5.82-34.8,6.57-.92,.03-1.83,.05-2.71,.05Z" style="opacity:.3;"></path><path d="M221.96,249.2l-.76,6.28s14.69,3.69,31.14-2.24c16.45-5.93,18.39-10.45,18.39-10.45l16.2,6.41v-9.22l-26.55-8.67-38.42,17.89Z" style="opacity:.4;"></path><rect x="236.28" y="197.57" width="42.09" height="56.9" style="fill:#263238;"></rect><polygon points="281.69 213.77 278.3 205.26 278.3 210.97 281.69 213.77" style="opacity:.3;"></polygon><polygon points="233.25 211.88 233.82 203.35 237.79 213.05 233.25 211.88" style="opacity:.3;"></polygon><g><path d="M238.38,177.2s-15.81,1.86-19.34,12.57c-2.61,7.92-11.66,48.02-8.05,52.09s6.43,6.4,13.14,7.31c6.71,.9,39-16.08,39-16.08l-21-8.23-12.53,2.79,8.79-50.44Z" style="fill:#01B3EF;"></path><g><path d="M226.23,181.37s60.6,103.48,60.58,103.16c-.02-.32,7.15-7.32,7.15-7.32l-61.81-98.73s-4.08-.45-5.91,2.89Z" style="fill:#01B3EF;"></path><path d="M226.23,181.37s60.6,103.48,60.58,103.16c-.02-.32,7.15-7.32,7.15-7.32l-61.81-98.73s-4.08-.45-5.91,2.89Z" style="opacity:.3;"></path></g><path d="M263.9,217.19s9.77-7.23,13.88-6.35c4.11,.88,4.72,5.19,4.72,5.19l.88,6.23-19.48-5.06Z" style="fill:#895555;"></path><path d="M226.1,225.81c-.14-.17-3.5,2.63-4.03,5.5,2.17-1.91,4.38-3.41,6.72-3.59l-2.68-1.91Z" style="opacity:.4;"></path><polygon points="237.79 225.81 253.93 237.73 259.33 235.03 237.79 225.81" style="opacity:.3;"></polygon></g><rect x="253.04" y="239.7" width=".5" height="40.82" style="opacity:.3;"></rect><path d="M265.04,179.43l7.15-10.4s-7.81-.62-9.97-.16l2.81,10.56Z" style="opacity:.3;"></path><path d="M237.02,177.2s10.77,8.35,10.36,8.35-10.74-7.77-10.74-7.77l.38-.57Z" style="opacity:.3;"></path><path d="M283.41,179.75c-.31-.04-12.9,7.45-12.9,7.45l14.97-7.08-2.06-.38Z" style="opacity:.3;"></path><g><path d="M257.46,188.17c-.77-1.03-1.9-1.79-3.02-2.39s-2.49-1.23-3.76-1.01c-.57,.1-1.13,.45-1.33,1.01s.05,1.15,.47,1.55c.85,.8,2.1,.99,3.21,1.1,1.43,.14,2.86,.08,4.29,.07,.19,0,.19-.3,0-.3-1.01,.01-2.03,.04-3.04,.01s-2.17-.1-3.17-.46c-.53-.19-1.09-.51-1.38-1-.42-.71,.1-1.44,.82-1.65,1.16-.32,2.57,.33,3.57,.85,1.13,.58,2.3,1.33,3.07,2.37,.11,.15,.37,0,.26-.15h0Z" style="fill:#fff;"></path><path d="M257.35,188.39c1.22,.27,2.54,.12,3.75-.14s2.56-.65,3.44-1.53,.76-2.45-.64-2.65c-1.21-.17-2.38,.54-3.33,1.21-1.19,.84-2.26,1.83-3.35,2.79-.15,.13,.07,.34,.21,.21,.8-.71,1.6-1.43,2.44-2.1s1.78-1.39,2.83-1.7c.54-.16,1.26-.25,1.75,.12,.66,.49,.37,1.42-.12,1.91-.79,.8-2.03,1.16-3.09,1.4-1.22,.28-2.57,.46-3.8,.19-.19-.04-.27,.25-.08,.29h0Z" style="fill:#fff;"></path><path d="M257.3,188.42c-.71,1.99-1.09,4.09-1.13,6.21,0,.19,.3,.19,.3,0,.03-2.09,.41-4.16,1.11-6.13,.07-.18-.22-.26-.29-.08h0Z" style="fill:#fff;"></path><path d="M257.61,188.3c.23,2.8,.56,5.58,1,8.35,.03,.19,.32,.11,.29-.08-.43-2.74-.76-5.5-.99-8.27-.02-.19-.32-.19-.3,0h0Z" style="fill:#fff;"></path></g><g><path d="M285.84,180.37s4.04-.99,8.27,7.41c4.23,8.4,11.66,41.41,11.79,47.47,.16,7.57-3.39,11.51-9.95,11.51-11.83,0-58.16-20.96-58.16-20.96l7.9-13.31,37.52,9.75-3.79-26.8,6.42-15.08Z" style="fill:#01B3EF;"></path><path d="M243.77,215.73s-6.5-3.36-9.99-3.83c-2.13-.28-5.69,4.17-8.13,7.67-1.56,2.24-1.01,5.34,1.22,6.92,.97,.69,1.78,1.23,1.91,1.23,.35,0,9.43-1.86,9.43-1.86l5.57-10.14Z" style="fill:#895555;"></path><path d="M283.22,222.25s6.95,2.59,9.04,6.74c0,0-.85-6.74-9.39-9.18l.35,2.44Z" style="opacity:.3;"></path></g><path d="M289.37,275.77c.82,.69,6.37-.67,7.81,1.45,1.44,2.12,16.04,40.77,11.1,43.85s-20.7,4.5-20.67,3.9c.03-.6-2.15-44.95-2.15-44.95l3.91-4.25Z" style="fill:#01B3EF;"></path><path d="M289.37,275.77c.82,.69,6.37-.67,7.81,1.45,1.44,2.12,16.04,40.77,11.1,43.85s-20.7,4.5-20.67,3.9c.03-.6-2.15-44.95-2.15-44.95l3.91-4.25Z" style="opacity:.3;"></path><path d="M303.38,308.55c-.83,0-1.7-.18-2.53-.66-2.53-1.47-5.08-11.66-7.58-30.29-.08-.58-.14-1.05-.15-1.11-.03-.13,.05-.27,.18-.3,.13-.03,.26,.04,.3,.17,.02,.06,.04,.25,.17,1.17,3.25,24.21,5.99,29.14,7.34,29.92,2.59,1.51,5.68-.29,6.03-.59,.03-.05,.08-.08,.14-.1,.13-.04,.27,.05,.3,.18,.04,.17-.09,.28-.17,.33-.49,.37-2.16,1.27-4.03,1.27Z" style="opacity:.2;"></path></g><g><path d="M265.15,179.43s-6.09,5.17-7.68,5.56c-2.14,.53-8.76-6.61-8.76-6.61,.69-3.26,1.73-10.96,1.14-14.88l16.37-11.26s0,.01,0,.05c-.43,1.41-1.07,10.11-1.97,20.65l.9,6.48Z" style="fill:#895555;"></path><g><g style="opacity:.2;"><path d="M258.65,166.34c-2.03,2.32-5.56,3.63-8.79,3.7,.05-.29,.04-.72,.07-1.01,.05-.45,.05-1.14,.08-1.61,.03-.58,.04-1.21,0-1.82-.03-.24-.12-.2-.15-.44l-.06-.49,9.8-3.32c.79,.58,.69,3.11-.95,4.99Z"></path></g><path d="M271.91,142.3c2.35-10.52-6.79-20.2-17.7-17.67-11.07,2.57-15.03,18.1-14.28,28.01,.84,11.01,13.18,17.96,22.55,11.05,6.23-4.6,7.07-10.87,9.42-21.39h0Z" style="fill:#895555;"></path></g><path d="M257.36,143.91c-.1,1.1-.76,1.93-1.47,1.86-.72-.07-1.22-1.02-1.12-2.11,.1-1.1,.76-1.93,1.47-1.86,.72,.07,1.22,1.02,1.12,2.11Z" style="fill:#263238;"></path><path d="M246.57,143.91c-.1,1.1-.76,1.93-1.47,1.86-.72-.07-1.22-1.02-1.12-2.11,.1-1.1,.76-1.93,1.47-1.86,.72,.07,1.22,1.02,1.12,2.11Z" style="fill:#263238;"></path><path d="M249.22,142.6s-3.95,5.14-5.26,7.26c1.4,1.51,4.09,1.11,4.09,1.11l1.17-8.37Z" style="fill:#773737;"></path><path d="M259.55,139.14c-.17,.05-.37,.01-.51-.12-1.65-1.54-3.38-1.19-3.56-1.15-.28,.07-.56-.1-.63-.38-.07-.28,.1-.55,.38-.62,.1-.02,2.42-.55,4.51,1.4,.21,.19,.22,.52,.03,.73-.06,.07-.14,.11-.22,.14Z" style="fill:#263238;"></path><path d="M242.58,139.03c-.09-.03-.18-.09-.25-.17-.18-.22-.15-.55,.07-.73,2.19-1.81,4.45-1.09,4.55-1.07,.27,.09,.42,.38,.34,.65-.08,.27-.37,.42-.64,.34-.09-.03-1.84-.56-3.6,.89-.14,.11-.32,.14-.48,.09Z" style="fill:#263238;"></path><path d="M255.93,153.26c.4-2.85-7.29,1.65-7.29,1.65,0,0,.84,3.18,3.82,2.92,3.6-.32,3.47-4.57,3.47-4.57Z" style="fill:#fff;"></path><path d="M267.25,147.85s2.84-18.09-2.52-20.14-7.49,2.89-11.15,2.12c-3.66-.77-2.93-3.43-2.93-3.43-2.48,.98-4.98,4.94-7.28,7.9,0,0,3.38-8.07,7.96-10.08,8.92-3.91,18.95-1.69,22.61,3.89,3.59,5.48,1.31,14.85,1.31,14.85-2.26,7.07-3.8,10.97-7.74,14.88l-.26-9.99Z" style="fill:#263238;"></path><g><path d="M274.85,149.95c-1.14,2.78-3.46,4.76-5.76,5.66-3.46,1.35-4.38-2.38-3.75-5.85,.56-3.12,1.82-6.88,5.45-6.75,3.58,.13,5.37,3.76,4.06,6.94Z" style="fill:#895555;"></path><path d="M267.22,149.78s-.03,0-.05,0c-.14-.03-.22-.16-.2-.29,.2-.99,.66-1.92,1.33-2.68,.45-.51,1.19-1.15,2.17-1.31,.96-.15,1.91,.28,2.33,1.03,.07,.12,.02,.27-.1,.34-.12,.07-.27,.02-.34-.1-.31-.57-1.08-.89-1.82-.78-.83,.13-1.47,.69-1.87,1.14-.61,.69-1.03,1.54-1.22,2.44-.02,.12-.13,.2-.25,.2Z" style="opacity:.2;"></path></g><path d="M268.88,131.78c-.17-2.27-1.06-4.59-2.87-5.98-.85-.66-1.87-1.07-2.89-1.42-2.71-.92-.64-1.39-3.47-1.86h-2.75c-2.16,.29-6.31,1.46-8.31,2.34-3.17,1.4-6.61,2.2-10.07,2.34-.59,.02-1.3,.11-1.54,.64-.24,.54,.19,1.14,.63,1.54,2.8,2.59,7.05,3.5,10.66,2.27-1.22,1.89-5.5,1.89-4.05,2.41,4.3,2.13,9.77,1.65,13.64-1.18-.15,.6-.31,1.23-.21,1.84s.53,1.22,1.14,1.32c.5,.08,.99-.17,1.39-.47,1.42-1.05,2.26-2.7,3.04-4.28,1.43,2.54,2.42,10.97,4.23,13.26,5.12-4.16,1.59-10.49,1.42-12.77Z" style="fill:#263238;"></path></g></g></g><g id="freepik--Character_1--inject-84"><g><g><g><path d="M160.27,224.23l5.45,30.91,8.93,31.13-6.71,7.69s-12.57-28.71-14.19-35.45c-1.62-6.75-4.07-29.94-4.07-29.94l10.59-4.34Z" style="fill:#eec1bb;"></path><path d="M149.81,202.89s2.22,.74,4.37,3.36c2.15,2.63,12.6,18.72,12.6,18.72l-16.39,7.68-.58-29.76Z" style="fill:#263238;"></path><path d="M149.81,202.89s2.22,.74,4.37,3.36c2.15,2.63,12.6,18.72,12.6,18.72l-16.39,7.68-.58-29.76Z" style="fill:#fff; opacity:.2;"></path><path d="M156.4,229.84s.27-4.87,0-8.45c-.27-3.59-1.91-7.07-1.91-7.07,0,0,3.28,4.25,4.2,7.76s1.58,5.95,1.58,5.95l-3.87,1.81Z" style="opacity:.3;"></path></g><g><path d="M142.12,274.04h37.32c2.66,0,4.82,2.16,4.82,4.82v27.5h-42.14v-32.32h0Z" style="fill:#263238;"></path><path d="M182.49,306.37h-3.98v-28.26c0-1.1,.89-1.99,1.99-1.99h0c1.1,0,1.99,.89,1.99,1.99v28.26Z" style="fill:#fff;"></path></g><g><path d="M177.11,305.48s-2.23-5.76-3.82-6.38c-1.59-.62-1.31,1.8-1.31,1.8,0,0-.47-2.64-1.62-2.59-1.38,.06-1.07,2.59-1.07,2.59,0,0-.47-2.14-1.49-2.03-1.06,.12-.92,2.99-.92,2.99,0,0-.62-1.44-1.28-.97-.66,.48-.49,6.59,.77,8.32,1.26,1.72,9.12,1.25,10.79,.75,.48-.15,1.26-.54,1.82-2.77,.12-.47-.14-.96-.6-1.12l-1.21-.42-.07-.17Z" style="fill:#eec1bb;"></path><path d="M171.86,300.91h0l1.04,4.57c.01,.06,.08,.1,.15,.09,.07-.01,.12-.08,.1-.14l-1.04-4.56c-.01-.06-.08-.1-.15-.09-.07,.01-.11,.07-.1,.13Z" style="opacity:.2;"></path><path d="M169.18,301.04h0l.65,4.46c0,.06,.07,.1,.14,.09,.07,0,.11-.06,.11-.13l-.65-4.46c0-.06-.07-.1-.14-.09-.07,0-.12,.07-.11,.13Z" style="opacity:.2;"></path><path d="M166.78,302.03l.39,3.33c0,.06,.07,.11,.14,.1,.07,0,.12-.07,.11-.13l-.39-3.33c0-.06-.07-.11-.14-.1-.07,0-.12,.07-.11,.13Z" style="opacity:.2;"></path></g></g><g><path d="M99.32,224.59c-4.81-1.26-10.07,.93-13.41,4.6-3.34,3.67-5,8.61-5.72,13.53-.72,4.92-.58,9.91-.81,14.87-.23,4.86-.81,9.75-.09,14.56s2.97,9.67,7.13,12.2c3.02,1.84,6.72,2.25,10.25,2.01,3.53-.24,6.99-1.08,10.49-1.58,3.37-.47,7.19-.84,9.3-3.5,1.43-1.81,1.69-4.25,1.78-6.55,.54-13.05-2.37-26.05-6.83-38.32-1.05-2.89-2.23-5.81-4.24-8.14-2.01-2.33-5.03-4-8.08-3.66" style="fill:#01B3EF;"></path><g style="opacity:.3;"><path d="M99.32,224.59c-4.81-1.26-10.07,.93-13.41,4.6-3.34,3.67-5,8.61-5.72,13.53-.72,4.92-.58,9.91-.81,14.87-.23,4.86-.81,9.75-.09,14.56s2.97,9.67,7.13,12.2c3.02,1.84,6.72,2.25,10.25,2.01,3.53-.24,6.99-1.08,10.49-1.58,3.37-.47,7.19-.84,9.3-3.5,1.43-1.81,1.69-4.25,1.78-6.55,.54-13.05-2.37-26.05-6.83-38.32-1.05-2.89-2.23-5.81-4.24-8.14-2.01-2.33-5.03-4-8.08-3.66"></path></g><g style="opacity:.3;"><path d="M86.42,284.52c1.07,.65,2.23,1.12,3.43,1.44,2.16,.53,4.28,.64,5.97,.6,.28-.01,.57-.02,.85-.04,.9-.06,1.79-.16,2.68-.29l9.38-13.92h-29.45c.72,4.81,2.97,9.67,7.13,12.2Z"></path></g><path d="M84.69,271.74c-.15-21.89,0-21.94,.21-22.02l.28,.07-.19,.17,.23,.08c-.13,.6-.09,13.31-.03,21.71h-.5Zm.3-21.78l-.19,.16,.19-.16Z" style="opacity:.3;"></path><path d="M110.63,243.76l-2.72,7.85s-3.05,.68-5.38-3.93c-2.33-4.61-1.8-12.37-1.8-12.37l7.26-5.17,2.63,13.61Z" style="opacity:.2;"></path><path d="M111.44,254.74s-5.79,3.28-5.41,3.77c.38,.49,1.47,4.06,1.87,4.03,.41-.02,6.99-4.1,6.99-4.1l-3.46-3.7Z" style="opacity:.3;"></path></g><g><polygon points="121.75 463.98 131.67 462.92 133.74 436.82 118.62 438.28 121.75 463.98" style="fill:#eec1bb;"></polygon><g><path d="M132.41,459.13h-3.54c-.8,0-1.54,.41-2.02,1.05-2.04,2.79-3.58,1.74-5.8-.89-1.41-.16-1.79,1.46-1.91,1.89l-2.65,9.64c-.23,.8,.24,1.64,1.04,1.87,.14,.04,.29,.06,.44,.06h28.07c4.47,0,5.39-4.5,3.55-4.92-8.27-1.83-14.13-4.26-16.68-6.67-.47-.42,.01-.74-.5-2.04Z" style="fill:#263238;"></path><path d="M140.1,461.87c.37-.27,.6-.7,.6-1.16,.03-.25-.08-.49-.29-.62-1.11-.79-5.54,1.28-6.04,1.53-.06,.02-.1,.06-.12,.12-.04,.1,.02,.21,.12,.25,1.09,.26,2.2,.4,3.32,.43,.84,.08,1.68-.11,2.41-.54Zm.03-1.45c.09,.06,.14,.16,.12,.27-.02,.33-.18,.64-.44,.84-1.01,.75-3.44,.43-4.74,.18,1.84-.81,4.45-1.72,5.07-1.3Z" style="fill:#01B3EF;"></path><path d="M134.52,462.03c1.33-.56,4.12-2.74,3.97-3.9-.02-.24-.2-.53-.8-.61-2.43-.28-3.47,4.08-3.47,4.27-.02,.07,0,.16,.06,.21,.05,.01,.09,.01,.14,0l.1,.03Zm3.09-4.15c.45,.05,.45,.21,.45,.27,.13,.71-1.9,2.52-3.34,3.29,.3-1.02,1.19-3.56,2.73-3.56h.16Z" style="fill:#01B3EF;"></path><path d="M131.86,464.05s-.09-.01-.13-.04c-.12-.07-.15-.23-.08-.34,.7-1.11,1.89-1.88,3.19-2.05,.13-.02,.26,.08,.28,.21,.02,.14-.08,.26-.21,.28-1.15,.16-2.21,.84-2.83,1.82-.05,.08-.13,.12-.21,.12Z" style="fill:#01B3EF;"></path><path d="M134.06,465.71s-.09-.01-.13-.04c-.12-.07-.15-.23-.08-.34,.7-1.11,1.89-1.88,3.19-2.05,.13-.02,.26,.08,.28,.21,.02,.14-.08,.26-.21,.28-1.15,.16-2.21,.84-2.83,1.82-.05,.08-.13,.12-.21,.12Z" style="fill:#01B3EF;"></path><path d="M136.8,467.1s-.09-.01-.13-.04c-.12-.07-.15-.23-.08-.34,.7-1.11,1.89-1.88,3.19-2.05,.13-.01,.26,.08,.28,.21,.02,.14-.08,.26-.21,.28-1.15,.16-2.21,.84-2.83,1.82-.05,.08-.13,.12-.21,.12Z" style="fill:#01B3EF;"></path></g><polygon points="132.75 451.54 132.27 455.36 120.7 455.36 120.39 452.84 132.75 451.54" style="opacity:.3;"></polygon></g><g><polygon points="157.68 464.02 167.59 462.96 169.67 436.86 154.55 438.32 157.68 464.02" style="fill:#eec1bb;"></polygon><g><path d="M168.62,459.12h-3.54c-.8,0-1.54,.41-2.02,1.05-2.04,2.79-3.58,1.74-5.8-.89-1.41-.16-1.79,1.46-1.91,1.89l-2.65,9.64c-.23,.8,.24,1.64,1.04,1.87,.14,.04,.29,.06,.44,.06h28.07c4.46,0,5.39-4.5,3.55-4.92-8.27-1.83-14.13-4.26-16.68-6.67-.47-.42,.01-.74-.5-2.04Z" style="fill:#263238;"></path><path d="M176.31,461.86c.37-.27,.6-.7,.6-1.16,.03-.25-.08-.49-.29-.62-1.11-.79-5.54,1.28-6.04,1.53-.06,.02-.1,.06-.12,.12-.04,.1,.02,.21,.12,.25,1.09,.26,2.2,.4,3.32,.43,.84,.08,1.68-.11,2.41-.54Zm.03-1.45c.09,.06,.14,.16,.12,.27-.02,.33-.18,.64-.44,.84-1.01,.75-3.44,.43-4.74,.18,1.84-.81,4.45-1.72,5.07-1.3Z" style="fill:#01B3EF;"></path><path d="M170.73,462.02c1.33-.56,4.12-2.74,3.97-3.9-.02-.24-.2-.53-.8-.61-2.43-.28-3.47,4.08-3.47,4.27-.02,.07,0,.16,.06,.21,.05,.01,.09,.01,.14,0l.1,.03Zm3.09-4.15c.45,.05,.45,.21,.45,.27,.13,.71-1.9,2.52-3.34,3.29,.3-1.02,1.19-3.56,2.73-3.56h.16Z" style="fill:#01B3EF;"></path><path d="M168.07,464.04s-.09-.01-.13-.04c-.12-.07-.15-.23-.08-.34,.7-1.11,1.89-1.88,3.19-2.05,.13-.01,.26,.08,.28,.21,.02,.14-.08,.26-.21,.28-1.15,.16-2.21,.84-2.83,1.82-.05,.08-.13,.12-.21,.12Z" style="fill:#01B3EF;"></path><path d="M170.27,465.7s-.09-.01-.13-.04c-.12-.07-.15-.23-.08-.34,.7-1.11,1.89-1.88,3.19-2.05,.13-.01,.26,.08,.28,.21s-.08,.26-.21,.28c-1.15,.16-2.21,.84-2.83,1.82-.05,.08-.13,.12-.21,.12Z" style="fill:#01B3EF;"></path><path d="M173.01,467.09s-.09-.01-.13-.04c-.12-.07-.15-.23-.08-.34,.7-1.11,1.89-1.88,3.19-2.05,.13-.02,.26,.08,.28,.21,.02,.14-.08,.26-.21,.28-1.15,.16-2.21,.84-2.83,1.82-.05,.08-.13,.12-.21,.12Z" style="fill:#01B3EF;"></path></g><polygon points="168.26 454.6 168.08 456.82 156.84 457.16 156.53 454.65 168.26 454.6" style="opacity:.3;"></polygon></g><g><path d="M98.65,294.16c.92-26.78,14.14-35.65,14.14-35.65h40.95c1.53,6.02,3.63,16.59,5.57,23.45l18.99,83.2c.52,1.95,.83,3.95,.95,5.96l-4.86,83.69-23.9,.2c-.92-2.4-1.12-54.26-3.93-77.81-3.74-12.84-6.85-24.27-9.09-34.42l.41,37.42,1.47,74.16-25.33-.3c-9.03-57.76-8.71-92.73-12.03-124.8-1.23-11.89-3.65-26.01-3.34-35.09Z" style="fill:#01B3EF;"></path></g><g><g><path d="M108.74,203.58c-.52,.35-3.51,.94-7.97,6.45-4,4.94-23.05,24.56-22.43,31.45,.56,6.15,25.53,25.93,25.53,25.93l4.65-5.72-15.62-20.08,11.62-12.95,4.22-25.09Z" style="fill:#eec1bb;"></path><path d="M107.39,262.51s3.73-5.25,5.31-5.59c1.59-.35,8.83,.55,8.97,1.59,.14,1.04-.97,1.17-.97,1.17l1.79,2.07s0,.62-.83,.76c0,0-.07,1.52-.9,1.59-.83,.07-4.07-1.04-4.07-1.04l2.69,1.86s.41,.69-1.66,.48c-2.07-.21-2.8-1.24-2.8-1.24,0,0-4.8,4.07-7.14,4.07s-3.93-.83-3.93-.83l3.52-4.9Z" style="fill:#eec1bb;"></path></g><path d="M112.66,203.03s-5.44-1.63-10.72,3.28c-4.97,4.62-13.61,14.92-13.61,14.92l12.4,14.09,11.74-8.35,.19-23.94Z" style="fill:#263238;"></path><path d="M112.66,203.03s-5.44-1.63-10.72,3.28c-4.97,4.62-13.61,14.92-13.61,14.92l12.4,14.09,11.74-8.35,.19-23.94Z" style="fill:#fff; opacity:.2;"></path></g><g><path d="M145.23,201.35l4.58,1.54s6.59,14.1,6.59,19.93-2.79,37.21-2.79,37.21l-41.07-.78-2.24-14.38-3.04-19.5s5.97-11.16,3.51-21.48l2.45-1.33,32.02-1.22Z" style="fill:#263238;"></path><path d="M145.23,201.35l4.58,1.54s6.59,14.1,6.59,19.93-2.79,37.21-2.79,37.21l-41.07-.78-2.24-14.38-3.04-19.5s5.97-11.16,3.51-21.48l2.45-1.33,32.02-1.22Z" style="fill:#fff; opacity:.2;"></path><g><path d="M109.05,203.04s1.96-2.7,4.94-.84c3.84,2.4,8,40.38-2.54,52.54l-3.53-3.13s5.1-12.37,5.01-20.92c-.1-10.05-3.87-27.66-3.87-27.66Z" style="fill:#01B3EF;"></path><path d="M109.05,203.04s1.96-2.7,4.94-.84c3.84,2.4,8,40.38-2.54,52.54l-3.53-3.13s5.1-12.37,5.01-20.92c-.1-10.05-3.87-27.66-3.87-27.66Z" style="opacity:.3;"></path></g><g style="opacity:.3;"><path d="M125.93,238.01c1.67,1.15,5.14,1.68,7.36,1.49,2.22-.18,4.45-.82,6.22-2.18,1.77-1.35,3.01-3.5,2.93-5.72-4.14,4.5-10.42,6.93-16.51,6.41Z"></path></g></g><g><path d="M110.81,164.95c-1.06,3.79-1.59,7.71-1.56,11.65-.05,4.5,1.56,8.64,.4,13.07-1.36,5.17-3.92,9,2.27,11.88,1.62,.64,6.69,.33,8.39,0,6.04-.77,9.3,2.45,15.3,1.44,7.48-1.21,5.09,1.29,11.21-1.29,8.05-6.86,8.4-5.15,7.66-8.64,.24-3.54,4.6-3.07,5-9.04,.46,.46-4.42-4.37-5.12-6.96-.07-4.77,2.39-7.94,.29-16.02-1.24-3.86-4.89-9.08-9.03-10.67-8.99-3.51-17.92,2.06-17.92,2.06-7.97-.72-14.6,5.03-16.91,12.52Z" style="fill:#263238;"></path><path d="M137.09,198.03c-1.33-1.31-1.62-2.35-1.38-4.27,.17-1.48,.63-3.01,1.19-4.51l-1.98-2.13-10.3-9.57c.52,6.65,2.32,17.39-2.74,21.22,0,0-4.04,2.84-6.73,3.66,1.74,1.31,16.15,15.41,26.1,14.19,9.05-1.11,6.91-12.35,5.35-14.91-2.61-.7-7.88-2.14-9.52-3.67Z" style="fill:#eec1bb;"></path><path d="M135.74,194.62c-2.83-.65-6.91-2.52-7.61-5.75-.29-1.33-.33-2.64-.25-3.52l8.45,5.24c-.09,1.26-.79,2.22-.59,4.03Z" style="opacity:.2;"></path><path d="M120.46,167c1.4,10.11,1.78,14.41,7.26,19.5,8.25,7.65,20.26,4.39,21.88-5.77,1.46-9.15-1.07-24.15-11.24-27.96-10.02-3.75-19.31,4.12-17.91,14.24Z" style="fill:#eec1bb;"></path><path d="M133.43,170.43c.02,.95,.57,1.76,1.24,1.8,.67,.04,1.19-.7,1.18-1.66-.02-.95-.57-1.76-1.24-1.8-.67-.04-1.19,.7-1.18,1.66Z" style="fill:#263238;"></path><path d="M131.84,166.89c.13,0,.26-.04,.35-.14,1.48-1.54,3.27-1.13,3.29-1.12,.27,.06,.52-.1,.57-.37,.04-.27-.14-.54-.41-.6-.09-.02-2.34-.54-4.18,1.37-.18,.19-.17,.51,.03,.71,.1,.1,.22,.15,.34,.16Z" style="fill:#263238;"></path><path d="M146.59,164c.12-.04,.22-.12,.27-.24,.11-.24,0-.53-.26-.65-2.58-1.21-4.56-.12-4.65-.07-.24,.13-.3,.43-.15,.66,.15,.23,.47,.31,.7,.18,.08-.04,1.63-.87,3.68,.1,.13,.06,.28,.07,.4,.02Z" style="fill:#263238;"></path><path d="M141.04,168.83s1.76,3.73,3.67,6.02c.33,.4,.17,1.01-.31,1.22-1.23,.52-2.72,.17-2.72,.17l-.63-7.4Z" style="fill:#d8847c;"></path><path d="M134.18,168.78l2.35-.46s-1.67,1.69-2.35,.46Z" style="fill:#263238;"></path><path d="M143.22,169.77c.02,.95,.57,1.76,1.24,1.8,.67,.04,1.19-.7,1.18-1.66-.02-.95-.57-1.76-1.24-1.8-.67-.04-1.19,.7-1.18,1.66Z" style="fill:#263238;"></path><path d="M144.11,168.12l2.35-.46s-1.67,1.69-2.35,.46Z" style="fill:#263238;"></path><path d="M139.7,180.87c-1.84,0-3.64-1.02-4.56-2.62-.07-.12-.03-.27,.09-.34,.12-.07,.27-.03,.34,.09,.88,1.54,2.67,2.48,4.44,2.36,.12-.01,.26,.09,.27,.23,0,.14-.09,.26-.23,.27-.12,0-.23,.01-.35,.01Z" style="fill:#263238;"></path><path d="M123.72,183.42c-9.91-6.45-9.59-31.13,8.15-32.57,17.74-1.44,17.8,19.89,17.8,19.89-3.07-19.74-20.48-12.68-20.48-12.68,3.41,7.86-3.51,13.02-3.51,13.02-2.46,5.38-1.97,12.35-1.97,12.35Z" style="fill:#263238;"></path><path d="M117.77,175.42c1.3,2.03,3.31,3.25,5.11,3.61,2.72,.55,3.91-3.84,2.87-6.49-.94-2.39-3.65-3.87-6.25-3.22-2.55,.64-3.22,3.78-1.73,6.1Z" style="fill:#eec1bb;"></path><path d="M122.25,176.51s-.04,0-.06,0c-1.65-.38-2.41-1.24-2.76-1.89-.41-.77-.38-1.49-.22-1.9,.32-.84,1.35-1.49,2.35-1.11,.13,.05,.2,.19,.15,.32s-.19,.19-.32,.15c-.72-.27-1.48,.22-1.71,.83-.12,.3-.13,.87,.2,1.49,.3,.56,.97,1.31,2.43,1.64,.13,.03,.22,.16,.19,.3-.03,.12-.13,.19-.24,.19Z" style="opacity:.2;"></path><path d="M121.75,184.53c-.76,0-1.5-.25-2.12-.72-.75-.57-1.24-1.4-1.37-2.33-.13-.94,.11-1.86,.68-2.62,.57-.75,1.4-1.24,2.33-1.37,1.93-.27,3.72,1.09,3.99,3.02,.13,.94-.11,1.86-.68,2.62-.57,.75-1.4,1.24-2.33,1.37-.16,.02-.33,.03-.49,.03Zm.01-6.82c-.15,0-.3,.01-.45,.03-1.79,.25-3.05,1.91-2.8,3.7h0c.12,.87,.57,1.64,1.27,2.17,.7,.53,1.56,.75,2.43,.63,.87-.12,1.64-.57,2.17-1.27,.53-.7,.75-1.56,.63-2.43-.23-1.64-1.64-2.83-3.25-2.83Z" style="fill:#01B3EF;"></path><g style="opacity:.3;"><path d="M118.57,200.28c-3.29-.9-6.05-6.62-4.35-8.6,1.29-1.51,2.26-3.29,2.97-5.15,.78-2.04,.8-4.36,.07-6.41-.64-1.8-1.82-3.38-2.35-5.21-.58-1.98-.33-4.19,.67-6,1.09-1.98,2.98-3.39,4.9-4.58,1.92-1.19,3.98-2.23,5.6-3.81,3.13-3.05,1.45-7.19,.05-8.15h0c.21,2.25-.49,6.06-3.41,8.15-1.84,1.31-3.68,2.61-5.6,3.81-1.92,1.19-3.8,2.6-4.9,4.58-1,1.81-1.24,4.01-.67,6,.53,1.83,1.71,3.41,2.35,5.21,.73,2.06,.7,4.37-.07,6.41-.7,1.85-1.98,3.43-2.97,5.15-.99,1.72-1.71,3.76-1.16,5.67,0,0,.18,2.64,5.15,4.34l3.73-1.42Z" style="fill:#01B3EF;"></path></g><path d="M127.02,153.41c-.21-.32,13.99-4.18,19.89,3.04,5.89,7.22,5.69,18.71,5.69,18.71,0,0,3.38-18.32-7.46-22.78-10.84-4.47-18.12,1.04-18.12,1.04Z" style="fill:#01B3EF; opacity:.3;"></path></g></g></g></svg>
